<svg xmlns="http://www.w3.org/2000/svg" viewBox="0 0 1128.41 483.4"><title>Resurs 2</title><g id="Lager_2" data-name="Lager 2"><g id="Lager_1-2" data-name="Lager 1"><rect x="236.95" y="392.92" width="193.72" height="65.81" rx="8.14" ry="8.14" style="fill:#767676"/><rect x="236.95" y="307.72" width="193.72" height="65.81" rx="8.14" ry="8.14" style="fill:#767676"/><rect x="236.95" y="222.52" width="193.72" height="65.81" rx="8.14" ry="8.14" style="fill:#767676"/><rect x="236.95" y="49.19" width="153.52" height="64" rx="7.15" ry="7.15" style="fill:#767676"/><rect x="-75.08" y="216.21" width="478.3" height="50.98" rx="11.26" ry="11.26" transform="translate(-77.63 405.77) rotate(-90)" style="fill:#767676"/><rect x="-144.37" y="216.21" width="478.3" height="50.98" rx="11.26" ry="11.26" transform="translate(-146.92 336.48) rotate(-90)" style="fill:#767676"/><rect x="-213.66" y="216.21" width="478.3" height="50.98" rx="11.26" ry="11.26" transform="translate(-216.21 267.19) rotate(-90)" style="fill:#767676"/><rect x="415.87" y="49.19" width="153.52" height="64" rx="7.15" ry="7.15" style="fill:#767676"/><rect x="592.61" y="49.19" width="153.52" height="64" rx="7.15" ry="7.15" style="fill:#767676"/><rect x="770.1" y="49.19" width="153.52" height="64" rx="7.15" ry="7.15" style="fill:#767676"/><rect x="211.03" y="163.55" width="914.83" height="317.3" rx="38.86" ry="38.86" style="fill:none;stroke:#a0a0a0;stroke-miterlimit:10;stroke-width:5.100870735717002px"/><rect x="211.03" y="2.55" width="914.83" height="142.73" rx="26.07" ry="26.07" style="fill:none;stroke:#a0a0a0;stroke-miterlimit:10;stroke-width:5.1008707357170024px"/><rect x="461.02" y="392.92" width="193.72" height="65.81" rx="8.14" ry="8.14" style="fill:#767676"/><rect x="461.02" y="307.72" width="193.72" height="65.81" rx="8.14" ry="8.14" style="fill:#767676"/><rect x="461.02" y="222.52" width="193.72" height="65.81" rx="8.14" ry="8.14" style="fill:#767676"/><rect x="685.09" y="392.92" width="193.72" height="65.81" rx="8.14" ry="8.14" style="fill:#767676"/><rect x="685.09" y="307.72" width="193.72" height="65.81" rx="8.14" ry="8.14" style="fill:#767676"/><rect x="685.09" y="222.52" width="193.72" height="65.81" rx="8.14" ry="8.14" style="fill:#767676"/><rect x="909.15" y="307.72" width="193.72" height="151.01" rx="12.34" ry="12.34" style="fill:#767676"/><rect x="909.15" y="222.52" width="193.72" height="65.81" rx="8.14" ry="8.14" style="fill:#767676"/><text transform="translate(514.41 198.21)" style="font-size:24px;fill:#fafafa;font-family:Hilda-Regular, Hilda">Common In<tspan x="120.84" y="0" style="letter-spacing:-0.004007975260416667em">f</tspan><tspan x="128.64" y="0">ormation </tspan><tspan x="228.31" y="0" style="letter-spacing:-0.008992513020833334em">L</tspan><tspan x="241.03" y="0">a</tspan><tspan x="254.25" y="0" style="letter-spacing:-0.0069580078125em">y</tspan><tspan x="266.01" y="0">e</tspan><tspan x="278.16" y="0" style="letter-spacing:-0.019978841145833332em">r</tspan></text><text transform="translate(514.41 33.21)" style="font-size:24px;fill:#fafafa;font-family:Hilda-Regular, Hilda">Common In<tspan x="120.84" y="0" style="letter-spacing:-0.004007975260416667em">f</tspan><tspan x="128.64" y="0">ormation </tspan><tspan x="228.31" y="0" style="letter-spacing:-0.008992513020833334em">L</tspan><tspan x="241.03" y="0">a</tspan><tspan x="254.25" y="0" style="letter-spacing:-0.0069580078125em">y</tspan><tspan x="266.01" y="0">e</tspan><tspan x="278.16" y="0" style="letter-spacing:-0.019978841145833332em">r</tspan></text><text transform="translate(247.29 336.19) scale(1.03 1)" style="font-size:20px;fill:#fafafa;font-family:Hilda-Regular, Hilda">Cus<tspan x="31.5" y="0" style="letter-spacing:-0.008004799799397519em">t</tspan><tspan x="38.14" y="0">ome</tspan><tspan x="75.64" y="0" style="letter-spacing:-0.020000122940927928em">r</tspan><tspan x="82" y="0" xml:space="preserve"> &amp; </tspan><tspan x="103.88" y="0" style="letter-spacing:0.000997630835533222em">P</tspan><tspan x="116" y="0">a</tspan><tspan x="127.02" y="0" style="letter-spacing:0.013966831697465109em">r</tspan><tspan x="134.06" y="0">tne</tspan><tspan x="162" y="0" style="letter-spacing:-0.020000122940927928em">r</tspan><tspan x="168.36" y="0"></tspan><tspan x="45.01" y="24">Cha</tspan><tspan x="78.99" y="24" style="letter-spacing:-0.008004799799397519em">r</tspan><tspan x="85.59" y="24" style="letter-spacing:0.00002375311513174338em">ging</tspan></text><text transform="translate(267.43 435.19) scale(1.03 1)" style="font-size:20px;fill:#fafafa;font-family:Hilda-Regular, Hilda">Service Co<tspan x="89.24" y="0" style="letter-spacing:-0.007007168963864298em">n</tspan><tspan x="100.12" y="0">t</tspan><tspan x="106.92" y="0" style="letter-spacing:-0.008004799799397519em">r</tspan><tspan x="113.52" y="0" style="letter-spacing:-0.00002375311513174338em">ol</tspan></text><text transform="translate(477.1 261.19) scale(1.03 1)" style="font-size:20px;fill:#fafafa;font-family:Hilda-Regular, Hilda">O<tspan x="14.04" y="0" style="letter-spacing:-0.008004799799397519em">r</tspan><tspan x="20.64" y="0">de</tspan><tspan x="41.8" y="0" style="letter-spacing:-0.020000122940927928em">r</tspan><tspan x="48.16" y="0" xml:space="preserve" style="letter-spacing:-0.00002375311513174338em"> Managme</tspan><tspan x="139.5" y="0" style="letter-spacing:-0.0069834158487325545em">n</tspan><tspan x="150.38" y="0">t</tspan></text><text transform="translate(501.45 348.63) scale(1.03 1)" style="font-size:20px;fill:#fafafa;font-family:Hilda-Regular, Hilda">Notifications</text><text transform="translate(512.76 435.19) scale(1.03 1)" style="font-size:20px;fill:#fafafa;font-family:Hilda-Regular, Hilda"><tspan style="letter-spacing:-0.005985785013199332em">A</tspan><tspan x="12.76" y="0">cti</tspan><tspan x="33.32" y="0" style="letter-spacing:-0.0069834158487325545em">v</tspan><tspan x="43.3" y="0" style="letter-spacing:-0.00002375311513174338em">ation</tspan></text><text transform="translate(701.17 250.29) scale(1.03 1)" style="font-size:20px;fill:#fafafa;font-family:Hilda-Regular, Hilda">Cus<tspan x="31.5" y="0" style="letter-spacing:-0.008004799799397519em">t</tspan><tspan x="38.14" y="0">ome</tspan><tspan x="75.64" y="0" style="letter-spacing:-0.020000122940927928em">r</tspan><tspan x="82" y="0" xml:space="preserve"> &amp; </tspan><tspan x="103.88" y="0" style="letter-spacing:0.000997630835533222em">P</tspan><tspan x="116" y="0">a</tspan><tspan x="127.02" y="0" style="letter-spacing:0.013966831697465109em">r</tspan><tspan x="134.06" y="0" style="letter-spacing:-0.007981046684265776em">t</tspan><tspan x="140.7" y="0">e</tspan><tspan x="150.82" y="0" style="letter-spacing:-0.020000122940927928em">r</tspan><tspan x="157.18" y="0"></tspan><tspan x="21.23" y="24">Manageme</tspan><tspan x="118.27" y="24" style="letter-spacing:-0.0069834158487325545em">n</tspan><tspan x="129.15" y="24" style="letter-spacing:-0.00002375311513174338em">t</tspan></text><text transform="translate(740.91 348.63) scale(1.03 1)" style="font-size:20px;fill:#fafafa;font-family:Hilda-Regular, Hilda">I<tspan x="7.54" y="0" style="letter-spacing:-0.0030166456217314095em">n</tspan><tspan x="18.5" y="0" style="letter-spacing:-0.0069834158487325545em">v</tspan><tspan x="28.48" y="0">oicing</tspan></text><text transform="translate(737.37 435.19) scale(1.03 1)" style="font-size:20px;fill:#fafafa;font-family:Hilda-Regular, Hilda">Mediation</text><text transform="translate(965.47 248.43) scale(1.03 1)" style="font-size:20px;fill:#fafafa;font-family:Hilda-Regular, Hilda"><tspan style="letter-spacing:-0.0069834158487325545em">R</tspan><tspan x="12.8" y="0">esou</tspan><tspan x="53.28" y="0" style="letter-spacing:-0.008004799799397519em">r</tspan><tspan x="59.88" y="0">ce</tspan><tspan x="-17.91" y="24">Manageme</tspan><tspan x="79.13" y="24" style="letter-spacing:-0.0069834158487325545em">n</tspan><tspan x="90.01" y="24" style="letter-spacing:-0.00002375311513174338em">t</tspan></text><text transform="translate(965.47 383.23) scale(1.03 1)" style="font-size:20px;fill:#fafafa;font-family:Hilda-Regular, Hilda">Financial<tspan x="-12.85" y="24">Managme</tspan><tspan x="74.07" y="24" style="letter-spacing:-0.007007168963864298em">n</tspan><tspan x="84.95" y="24">t</tspan></text><text transform="matrix(0.98, 0.01, -0.01, 1, 263.26, 87.29)" style="font-size:22px;fill:#fafafa;font-family:Hilda-Regular, Hilda">Call Ce<tspan x="65.07" y="0" style="letter-spacing:-0.006991533029729654em">n</tspan><tspan x="77.04" y="0" style="letter-spacing:-0.007983879653304184em">t</tspan><tspan x="84.35" y="0">e</tspan><tspan x="95.48" y="0" style="letter-spacing:-0.020004805797968397em">r</tspan></text><text transform="translate(441.43 87.64) scale(0.98 1)" style="font-size:22px;fill:#fafafa;font-family:Hilda-Regular, Hilda">Self Service</text><text transform="translate(628.67 87.64) scale(0.98 1)" style="font-size:22px;fill:#fafafa;font-family:Hilda-Regular, Hilda"><tspan style="letter-spacing:0.0009923466235745315em">P</tspan><tspan x="13.33" y="0">a</tspan><tspan x="25.45" y="0" style="letter-spacing:0.013983066059459308em">r</tspan><tspan x="33.2" y="0">tners</tspan></text><text transform="translate(788 87.64) scale(0.98 1)" style="font-size:22px;fill:#fafafa;font-family:Hilda-Regular, Hilda"><tspan style="letter-spacing:0.0009923466235745315em">P</tspan><tspan x="13.33" y="0">oi</tspan><tspan x="30.56" y="0" style="letter-spacing:-0.006946426365021719em">n</tspan><tspan x="42.53" y="0" style="letter-spacing:-0.000045106664707933245em">t </tspan><tspan x="54.87" y="0" style="letter-spacing:-0.005999186406155122em">o</tspan><tspan x="66.62" y="0">f Sale</tspan></text><rect x="949.36" y="49.19" width="153.52" height="64" rx="7.15" ry="7.15" style="fill:#767676"/><text transform="translate(987.47 73.92) scale(0.98 1)" style="font-size:22px;fill:#fafafa;font-family:Hilda-Regular, Hilda">Assis<tspan x="47.96" y="0" style="letter-spacing:-0.008028986318012118em">t</tspan><tspan x="55.26" y="0">ed</tspan><tspan x="-4.52" y="26.4">Channels</tspan></text><text transform="translate(254.59 248.43) scale(1.03 1)" style="font-size:20px;fill:#fafafa;font-family:Hilda-Regular, Hilda"><tspan style="letter-spacing:0.010000061470463964em">P</tspan><tspan x="12.3" y="0" style="letter-spacing:-0.008004799799397519em">r</tspan><tspan x="18.9" y="0" style="letter-spacing:-0.00002375311513174338em">oduct Li</tspan><tspan x="87.44" y="0" style="letter-spacing:-0.004014276457264631em">f</tspan><tspan x="93.94" y="0" style="letter-spacing:0.00002375311513174338em">e</tspan><tspan x="104.06" y="0" style="letter-spacing:0.008978677519798998em">c</tspan><tspan x="113.14" y="0" style="letter-spacing:-0.0069834158487325545em">y</tspan><tspan x="122.94" y="0">cle</tspan><tspan x="16.05" y="24">Manageme</tspan><tspan x="113.09" y="24" style="letter-spacing:-0.0069834158487325545em">n</tspan><tspan x="123.97" y="24" style="letter-spacing:-0.00002375311513174338em">t</tspan></text><text transform="translate(173.34 414.32) rotate(-90)" style="font-size:22.852519989013672px;fill:#fafafa;font-family:Hilda-Regular, Hilda">Common Ope<tspan x="134.07" y="0" style="letter-spacing:-0.008012484786711828em">r</tspan><tspan x="141.62" y="0">ation &amp; Mai</tspan><tspan x="254.14" y="0" style="letter-spacing:-0.006986886734012714em">n</tspan><tspan x="266.57" y="0" style="letter-spacing:-0.00799111816061393em">t</tspan><tspan x="274.16" y="0">enance</tspan></text><text transform="translate(101.72 401.86) rotate(-90)" style="font-size:22.852519989013672px;fill:#fafafa;font-family:Hilda-Regular, Hilda">Common Business Configu<tspan x="261.93" y="0" style="letter-spacing:-0.00799111816061393em">r</tspan><tspan x="269.47" y="0">ation</tspan></text><text transform="translate(33.72 286.78) rotate(-90)" style="font-size:22.852519989013672px;fill:#fafafa;font-family:Hilda-Regular, Hilda">Analytics</text></g></g></svg>