<svg xmlns="http://www.w3.org/2000/svg" xmlns:xlink="http://www.w3.org/1999/xlink" viewBox="0 0 682.89 454.99">
  <defs>
    <style>
      .\31 e8464ac-ea4a-491d-a699-6c436aa9e3d9 {
        isolation: isolate;
      }

      .\37 5ad6947-3a4d-439c-b66f-77eb2dbaf73f {
        opacity: 0.28;
        mix-blend-mode: multiply;
      }

      .\35 b0fbd8a-6311-484c-969a-36f2fa9983aa {
        fill: #acd698;
      }

      .\37 3ebb0c0-11b4-47bf-8456-431424f43cf0 {
        fill: #8ec97b;
      }

      .\37 66ac7b9-ae33-4839-b7fe-cb39d8330c9c {
        fill: #79b163;
      }

      .ec33a8c5-090f-40eb-909c-b72064c31f31 {
        fill: #f0f0f0;
      }

      .\37 ad28711-d8d9-4522-9390-c788b2cdffaa {
        fill: #acdee1;
      }

      .\30 314b56c-bdc8-4875-b527-a720a47a4ba3 {
        fill: #96ccd2;
      }

      .d5fe0d14-bdd0-4443-a79d-50f03570515e {
        fill: #7fbbc0;
      }

      .d292004b-ceec-48b7-b474-784a937d37f8 {
        fill: #e9c091;
      }

      .\36 fb2333c-514b-4c03-b19d-52bb3587576f {
        fill: #e7b16a;
      }

      .a4b86d82-56f6-4a77-9986-0b540c5619dd {
        fill: #d19752;
      }

      .\34 4da6b25-82d1-4c83-aab2-76d82c665af1 {
        fill: #ddb73e;
      }

      .\31 fd57eb0-7c04-4d83-b1f4-1c375ee050aa {
        fill: #fad22d;
      }

      .\30 33fb481-5523-4970-968a-f97233db9a92 {
        fill: #dcaf00;
      }

      .c74581d6-2605-4824-bc1c-53f15c65adc1 {
        fill: #5da084;
      }

      .\39 f8a57f1-aacf-4fe2-8765-99f8b8c45fee {
        fill: #0fc373;
      }

      .\36 7e1ff85-cc2a-4448-a404-ba5bcb8a3cfc {
        fill: #288964;
      }

      .fe7d61bd-86f7-4359-a27c-b9851be7036a {
        fill: #e0e0e0;
      }

      .a6482c5e-cdb6-4f4c-8b17-b4355d1f21eb {
        fill: #a0a0a0;
      }

      .ce70491d-cfa4-4294-b181-e559d22d8ae1 {
        fill: #767676;
      }

      .d489188a-b372-4180-b380-1ef2832a33af {
        fill: #323333;
      }

      .\34 da911d4-0c70-4caa-9a32-6adc0ad8fede {
        fill: #fff;
      }
    </style>
  </defs>
  <title>Eribuilding</title>
  <g class="1e8464ac-ea4a-491d-a699-6c436aa9e3d9">
    <g id="3cd9276a-e1e6-48f4-98eb-373ccf3b9205" data-name="Lager 1">
      <g id="35d7ba88-f208-4b65-b64e-572f83435389" data-name="PS1">
        <image class="75ad6947-3a4d-439c-b66f-77eb2dbaf73f" width="498" height="237" transform="translate(0 217.99)" xlink:href="Eribuilding1.png"/>
        <g>
          <polygon class="5b0fbd8a-6311-484c-969a-36f2fa9983aa" points="396.67 252.49 38.94 358.29 107.26 391.1 458.91 263.91 396.67 252.49"/>
          <polygon class="73ebb0c0-11b4-47bf-8456-431424f43cf0" points="107.26 391.1 107.26 412.05 38.94 376.51 38.94 358.29 107.26 391.1"/>
          <polygon class="766ac7b9-ae33-4839-b7fe-cb39d8330c9c" points="107.26 412.05 458.91 272.53 458.91 263.91 107.26 391.1 107.26 412.05"/>
          <g class="1e8464ac-ea4a-491d-a699-6c436aa9e3d9">
            <polygon class="ec33a8c5-090f-40eb-909c-b72064c31f31" points="172.9 370.55 173.76 381.42 175.38 380.81 175.47 381.95 171.34 383.52 171.24 382.37 172.98 381.72 172.24 372.49 170.66 373.97 170.56 372.69 172.55 370.68 172.9 370.55"/>
            <path class="ec33a8c5-090f-40eb-909c-b72064c31f31" d="M1587.3,1128.67l2.79,4.08-1,.39-2.75-4.05-1.13.42.4,5-.82.31-1-12,2.58-1,.11,0,.11,0,.1,0,.1,0a1.39,1.39,0,0,1,.75.11,1.66,1.66,0,0,1,.62.52,3,3,0,0,1,.45.9,5.55,5.55,0,0,1,.24,1.26,6.55,6.55,0,0,1,0,1.37,5.21,5.21,0,0,1-.29,1.19,3.77,3.77,0,0,1-.52,1A2.61,2.61,0,0,1,1587.3,1128.67Zm-2.23-.54,1.74-.65a1.57,1.57,0,0,0,.6-.4,2.08,2.08,0,0,0,.4-.63,3.06,3.06,0,0,0,.21-.78,4,4,0,0,0,0-.85,3.47,3.47,0,0,0-.13-.72,1.91,1.91,0,0,0-.26-.55,1,1,0,0,0-.38-.34.87.87,0,0,0-.5-.08h-.07l-.08,0-.08,0-.08,0-1.74.65.34,4.27" transform="translate(-1422 -748)"/>
            <path class="ec33a8c5-090f-40eb-909c-b72064c31f31" d="M1582.81,1129.66a14.61,14.61,0,0,1,0,2.4,9.2,9.2,0,0,1-.39,2.06,5,5,0,0,1-.81,1.58,3,3,0,0,1-1.25.94l-.14,0-.13,0-.13,0-.13,0a1.64,1.64,0,0,1-1.12-.25,2.68,2.68,0,0,1-.86-1,6.47,6.47,0,0,1-.59-1.59,13.1,13.1,0,0,1-.32-2.08l0-.62a14.54,14.54,0,0,1,0-2.41,9.15,9.15,0,0,1,.4-2.07,4.94,4.94,0,0,1,.82-1.58,3,3,0,0,1,1.26-.93l.13,0,.13,0,.13,0,.13,0a1.64,1.64,0,0,1,1.11.25,2.7,2.7,0,0,1,.86,1,6.5,6.5,0,0,1,.59,1.59,13.1,13.1,0,0,1,.32,2.08Zm-2.57,5.6a2.09,2.09,0,0,0,.92-.7,3.66,3.66,0,0,0,.58-1.2,7.28,7.28,0,0,0,.26-1.57,12.38,12.38,0,0,0,0-1.83l0-.59a11.42,11.42,0,0,0-.23-1.6,5.38,5.38,0,0,0-.42-1.24,2.06,2.06,0,0,0-.62-.77,1.15,1.15,0,0,0-.82-.2h-.09l-.09,0-.09,0-.1,0a2.1,2.1,0,0,0-.93.71,3.65,3.65,0,0,0-.58,1.2,7.32,7.32,0,0,0-.26,1.58,12.66,12.66,0,0,0,0,1.84l0,.58a11.51,11.51,0,0,0,.23,1.6,5.4,5.4,0,0,0,.42,1.24,2.05,2.05,0,0,0,.62.77,1.15,1.15,0,0,0,.82.2h.09l.09,0,.1,0,.1,0" transform="translate(-1422 -748)"/>
            <path class="ec33a8c5-090f-40eb-909c-b72064c31f31" d="M1575.82,1132.3a14.55,14.55,0,0,1,0,2.4,9.2,9.2,0,0,1-.4,2.07,5,5,0,0,1-.82,1.58,3,3,0,0,1-1.26.94l-.14,0-.13,0-.13,0-.13,0a1.65,1.65,0,0,1-1.12-.25,2.69,2.69,0,0,1-.86-1,6.47,6.47,0,0,1-.6-1.59,13,13,0,0,1-.33-2.08l0-.63a14.54,14.54,0,0,1,0-2.41,9.18,9.18,0,0,1,.4-2.07,5,5,0,0,1,.82-1.58,3,3,0,0,1,1.27-.94l.14,0,.13,0,.13,0,.13,0a1.64,1.64,0,0,1,1.12.25,2.7,2.7,0,0,1,.86,1,6.51,6.51,0,0,1,.59,1.59,13.13,13.13,0,0,1,.32,2.08Zm-2.58,5.62a2.09,2.09,0,0,0,.93-.71,3.68,3.68,0,0,0,.58-1.2,7.36,7.36,0,0,0,.26-1.58,12.54,12.54,0,0,0,0-1.84l0-.58a11.39,11.39,0,0,0-.24-1.61,5.4,5.4,0,0,0-.43-1.24,2.07,2.07,0,0,0-.62-.77,1.15,1.15,0,0,0-.82-.21h-.09l-.09,0-.1,0-.1,0a2.1,2.1,0,0,0-.93.7,3.64,3.64,0,0,0-.58,1.2,7.28,7.28,0,0,0-.26,1.58,12.5,12.5,0,0,0,0,1.84l0,.59a11.57,11.57,0,0,0,.24,1.61,5.41,5.41,0,0,0,.43,1.24,2.06,2.06,0,0,0,.62.77,1.15,1.15,0,0,0,.83.2h.09l.09,0,.1,0,.1,0" transform="translate(-1422 -748)"/>
            <polygon class="ec33a8c5-090f-40eb-909c-b72064c31f31" points="143.46 381.67 144.33 392.34 147.65 391.08 147.76 392.45 143.61 394.02 142.62 381.99 143.46 381.67"/>
            <polygon class="ec33a8c5-090f-40eb-909c-b72064c31f31" points="141.25 382.5 141.37 383.88 137.86 385.19 138.18 389.07 141.36 387.87 141.48 389.25 138.29 390.45 138.74 395.87 137.9 396.18 136.91 384.13 141.25 382.5"/>
            <path class="ec33a8c5-090f-40eb-909c-b72064c31f31" d="M1553.74,1134l.34,0,.31,0,.28.07.24.12.12,1.45a1.84,1.84,0,0,0-.3-.15,1.91,1.91,0,0,0-.32-.09l-.33,0-.34,0-.15,0-.15,0-.15,0-.15.05a2.27,2.27,0,0,0-.64.36,2,2,0,0,0-.46.53,2.23,2.23,0,0,0-.27.69,2.91,2.91,0,0,0,0,.83,2.15,2.15,0,0,0,.16.69,1.14,1.14,0,0,0,.32.43,1.6,1.6,0,0,0,.49.26,5,5,0,0,0,.65.17l.5.12a4.27,4.27,0,0,1,.77.23,2.08,2.08,0,0,1,.67.44,2.23,2.23,0,0,1,.5.79,4.59,4.59,0,0,1,.27,1.28,5.84,5.84,0,0,1-.07,1.57,4.32,4.32,0,0,1-.44,1.27,3.45,3.45,0,0,1-.73.93,3,3,0,0,1-.94.57l-.2.07-.19.05-.19,0-.18,0a2.85,2.85,0,0,1-.52,0,2.48,2.48,0,0,1-.46-.07,2,2,0,0,1-.39-.14,1.52,1.52,0,0,1-.31-.19l-.12-1.46a2.55,2.55,0,0,0,.36.23,2.38,2.38,0,0,0,.42.17,2.33,2.33,0,0,0,.47.09,2.48,2.48,0,0,0,.52,0l.16,0,.17,0,.17,0,.18-.06a2.23,2.23,0,0,0,.7-.42,2.16,2.16,0,0,0,.47-.61,2.58,2.58,0,0,0,.25-.75,3.32,3.32,0,0,0,0-.85,2.65,2.65,0,0,0-.15-.74,1.31,1.31,0,0,0-.31-.48,1.46,1.46,0,0,0-.47-.3,3.53,3.53,0,0,0-.62-.18l-.52-.11a5.58,5.58,0,0,1-.83-.24,2.1,2.1,0,0,1-.68-.41,2,2,0,0,1-.49-.74,4.26,4.26,0,0,1-.26-1.22,5.26,5.26,0,0,1,.08-1.47,4.24,4.24,0,0,1,.44-1.21,3.47,3.47,0,0,1,.71-.91,2.87,2.87,0,0,1,.91-.56l.19-.07.19-.05.18,0Z" transform="translate(-1422 -748)"/>
            <path class="ec33a8c5-090f-40eb-909c-b72064c31f31" d="M1550,1139.25a7,7,0,0,1,0,1.59,5.11,5.11,0,0,1-.38,1.33,3.47,3.47,0,0,1-.66,1,2.44,2.44,0,0,1-.9.6l-1.74.66.4,4.76-.85.32-1-12.1,2.58-1,.11,0,.11,0,.11,0,.11,0a1.44,1.44,0,0,1,.79.12,1.73,1.73,0,0,1,.65.54,3.15,3.15,0,0,1,.47.94A5.92,5.92,0,0,1,1550,1139.25Zm-2.11,3.16a1.63,1.63,0,0,0,.62-.42,2.17,2.17,0,0,0,.42-.66,3.29,3.29,0,0,0,.21-.83,4.52,4.52,0,0,0,0-.93,3.81,3.81,0,0,0-.14-.77,2.09,2.09,0,0,0-.27-.59,1.09,1.09,0,0,0-.4-.36.92.92,0,0,0-.53-.08h-.07l-.08,0-.08,0-.08,0-1.72.65.38,4.58,1.72-.65" transform="translate(-1422 -748)"/>
          </g>
        </g>
      </g>
      <g id="6953a25d-12dd-4988-ac87-cdb71e02f103" data-name="PS2">
        <polygon class="7ad28711-d8d9-4522-9390-c788b2cdffaa" points="389.33 214.68 38.94 285.94 105.66 307.41 449.09 222.84 389.33 214.68"/>
        <polygon class="0314b56c-bdc8-4875-b527-a720a47a4ba3" points="105.66 307.41 105.66 327.87 38.94 303.73 38.94 285.94 105.66 307.41"/>
        <polygon class="d5fe0d14-bdd0-4443-a79d-50f03570515e" points="105.66 327.87 449.09 232.24 449.09 222.84 105.66 307.41 105.66 327.87"/>
        <g>
          <g class="1e8464ac-ea4a-491d-a699-6c436aa9e3d9">
            <path class="ec33a8c5-090f-40eb-909c-b72064c31f31" d="M1594.43,1043.61a1.49,1.49,0,0,1,.84.12,1.55,1.55,0,0,1,.61.55,2.89,2.89,0,0,1,.38.91,5.54,5.54,0,0,1,.15,1.2,5.78,5.78,0,0,1-.07,1.05,6,6,0,0,1-.27,1,9.88,9.88,0,0,1-.49,1.14c-.2.41-.45.85-.74,1.35l-.47.81c-.21.36-.39.68-.54,1a8.61,8.61,0,0,0-.37.79,4.64,4.64,0,0,0-.34,1.45l3.5-.85,0,1.3-4.36,1v-.67a7.28,7.28,0,0,1,.07-1.21,6.83,6.83,0,0,1,.27-1.15,9.16,9.16,0,0,1,.48-1.16c.19-.4.42-.82.69-1.26l.54-.91c.23-.39.42-.74.59-1.05a8.42,8.42,0,0,0,.4-.89,4.56,4.56,0,0,0,.23-.8,3.82,3.82,0,0,0,.06-.79,3.15,3.15,0,0,0-.09-.72,1.53,1.53,0,0,0-.23-.53.89.89,0,0,0-.38-.31,1.07,1.07,0,0,0-.54-.06h-.2a2,2,0,0,0-.56.23,2.72,2.72,0,0,0-.49.37,3.83,3.83,0,0,0-.42.47,5.1,5.1,0,0,0-.35.52l0-1.45a3.38,3.38,0,0,1,.28-.41,3.57,3.57,0,0,1,.41-.44,3,3,0,0,1,.54-.39,2.47,2.47,0,0,1,.66-.26h.24Z" transform="translate(-1422 -748)"/>
            <path class="ec33a8c5-090f-40eb-909c-b72064c31f31" d="M1586.86,1052.7l2.52,4.49-1,.25-2.48-4.47-1.14.27.11,5-.83.2-.27-12.17,2.6-.62h.19a1.46,1.46,0,0,1,.82.13,1.73,1.73,0,0,1,.66.58,3.12,3.12,0,0,1,.44,1,5.79,5.79,0,0,1,.18,1.38,6.64,6.64,0,0,1-.1,1.37,5,5,0,0,1-.36,1.15,3.43,3.43,0,0,1-.57.88A2.28,2.28,0,0,1,1586.86,1052.7Zm-2.17-.84,1.75-.42a1.39,1.39,0,0,0,.61-.32,1.89,1.89,0,0,0,.43-.58,3,3,0,0,0,.25-.76,4.09,4.09,0,0,0,.07-.86,3.6,3.6,0,0,0-.1-.78,2,2,0,0,0-.25-.61,1.06,1.06,0,0,0-.4-.38,1,1,0,0,0-.56-.09h-.14l-1.75.41.1,4.35" transform="translate(-1422 -748)"/>
            <path class="ec33a8c5-090f-40eb-909c-b72064c31f31" d="M1582.39,1053.08a14.94,14.94,0,0,1-.13,2.41,9,9,0,0,1-.51,2,4.54,4.54,0,0,1-.89,1.47,2.6,2.6,0,0,1-1.29.77l-.07,0h-.2a1.72,1.72,0,0,1-1.2-.27,2.71,2.71,0,0,1-.87-1.07,6.7,6.7,0,0,1-.55-1.72,13.72,13.72,0,0,1-.22-2.23v-.63a14.91,14.91,0,0,1,.13-2.42,8.93,8.93,0,0,1,.51-2,4.51,4.51,0,0,1,.9-1.47,2.61,2.61,0,0,1,1.3-.76h.25a1.71,1.71,0,0,1,1.2.28,2.73,2.73,0,0,1,.87,1.07,6.72,6.72,0,0,1,.55,1.73,13.72,13.72,0,0,1,.22,2.24Zm-2.85,5.28a1.84,1.84,0,0,0,.95-.58,3.37,3.37,0,0,0,.64-1.13,7.2,7.2,0,0,0,.35-1.55,12.87,12.87,0,0,0,.08-1.85v-.59a12.07,12.07,0,0,0-.15-1.73,5.57,5.57,0,0,0-.38-1.34,2.07,2.07,0,0,0-.63-.84,1.2,1.2,0,0,0-.88-.22h-.18a1.87,1.87,0,0,0-1,.58,3.35,3.35,0,0,0-.64,1.13,7.15,7.15,0,0,0-.35,1.55,12.89,12.89,0,0,0-.08,1.85v.58a12.09,12.09,0,0,0,.15,1.73,5.56,5.56,0,0,0,.38,1.34,2.06,2.06,0,0,0,.62.84,1.2,1.2,0,0,0,.89.22h.19" transform="translate(-1422 -748)"/>
            <path class="ec33a8c5-090f-40eb-909c-b72064c31f31" d="M1575.35,1054.76a14.93,14.93,0,0,1-.13,2.42,9,9,0,0,1-.51,2,4.54,4.54,0,0,1-.9,1.48,2.62,2.62,0,0,1-1.3.77h-.26a1.73,1.73,0,0,1-1.21-.27,2.72,2.72,0,0,1-.88-1.07,6.68,6.68,0,0,1-.55-1.73,13.68,13.68,0,0,1-.22-2.25v-.63a15,15,0,0,1,.13-2.43,9,9,0,0,1,.51-2,4.54,4.54,0,0,1,.9-1.48,2.64,2.64,0,0,1,1.3-.77h.25a1.72,1.72,0,0,1,1.2.28,2.74,2.74,0,0,1,.88,1.08,6.74,6.74,0,0,1,.55,1.73,13.69,13.69,0,0,1,.22,2.24Zm-2.86,5.31a1.87,1.87,0,0,0,1-.59,3.4,3.4,0,0,0,.64-1.13,7.22,7.22,0,0,0,.35-1.55,12.87,12.87,0,0,0,.08-1.85v-.59a11.9,11.9,0,0,0-.15-1.72,5.55,5.55,0,0,0-.38-1.34,2.08,2.08,0,0,0-.63-.84,1.21,1.21,0,0,0-.89-.22h-.19a1.85,1.85,0,0,0-1,.58,3.35,3.35,0,0,0-.64,1.13,7.19,7.19,0,0,0-.35,1.55,13,13,0,0,0-.08,1.86v.59a12,12,0,0,0,.15,1.73,5.54,5.54,0,0,0,.38,1.34,2.07,2.07,0,0,0,.63.84,1.21,1.21,0,0,0,.89.22h.18" transform="translate(-1422 -748)"/>
            <polygon class="ec33a8c5-090f-40eb-909c-b72064c31f31" points="143.28 302.69 143.54 313.54 146.88 312.73 146.91 314.13 142.73 315.14 142.45 302.89 143.28 302.69"/>
            <path class="ec33a8c5-090f-40eb-909c-b72064c31f31" d="M1553.12,1053.41a2.75,2.75,0,0,1,.45,0,2.22,2.22,0,0,1,.41.05,1.81,1.81,0,0,1,.36.12,1.53,1.53,0,0,1,.3.18l0,1.48a2,2,0,0,0-.36-.23,2,2,0,0,0-.39-.14,2.17,2.17,0,0,0-.41-.06,2.44,2.44,0,0,0-.42,0h-.21l-.07,0a2,2,0,0,0-.65.28,1.81,1.81,0,0,0-.49.47,2.08,2.08,0,0,0-.3.66,2.93,2.93,0,0,0-.09.83,2.36,2.36,0,0,0,.11.72,1.3,1.3,0,0,0,.29.49,1.73,1.73,0,0,0,.47.33,5,5,0,0,0,.63.26l.49.19a4.48,4.48,0,0,1,.75.34,2.3,2.3,0,0,1,.63.53,2.51,2.51,0,0,1,.44.86,5,5,0,0,1,.19,1.33,6,6,0,0,1-.16,1.58,4.09,4.09,0,0,1-.51,1.21,3.09,3.09,0,0,1-.77.84,2.69,2.69,0,0,1-1,.45l-.09,0-.09,0h-.17a2.9,2.9,0,0,1-.65,0,2.67,2.67,0,0,1-.57-.12,2.33,2.33,0,0,1-.47-.21,1.77,1.77,0,0,1-.35-.27l0-1.5a2.77,2.77,0,0,0,.41.32,2.52,2.52,0,0,0,.48.25,2.4,2.4,0,0,0,.56.14,2.56,2.56,0,0,0,.63,0h.15l.08,0,.08,0a2,2,0,0,0,.72-.33,1.94,1.94,0,0,0,.5-.55,2.44,2.44,0,0,0,.29-.72,3.38,3.38,0,0,0,.08-.85,2.89,2.89,0,0,0-.11-.77,1.47,1.47,0,0,0-.28-.53,1.61,1.61,0,0,0-.44-.36,3.75,3.75,0,0,0-.6-.27l-.51-.18a5.84,5.84,0,0,1-.81-.35,2.33,2.33,0,0,1-.65-.51,2.24,2.24,0,0,1-.44-.81,4.56,4.56,0,0,1-.18-1.26,5.33,5.33,0,0,1,.16-1.47,4,4,0,0,1,.5-1.16,3.08,3.08,0,0,1,.75-.82,2.55,2.55,0,0,1,.93-.44l.09,0,.09,0h.18Z" transform="translate(-1422 -748)"/>
            <path class="ec33a8c5-090f-40eb-909c-b72064c31f31" d="M1549.53,1058.18a7.14,7.14,0,0,1-.13,1.6,4.93,4.93,0,0,1-.45,1.29,3.14,3.14,0,0,1-.71.92,2.16,2.16,0,0,1-.92.48l-1.75.42.12,4.84-.85.21-.3-12.33,2.6-.61h.2a1.51,1.51,0,0,1,.86.14,1.8,1.8,0,0,1,.68.61,3.3,3.3,0,0,1,.46,1A6.15,6.15,0,0,1,1549.53,1058.18Zm-2.26,2.9a1.47,1.47,0,0,0,.64-.34,2,2,0,0,0,.45-.61,3.15,3.15,0,0,0,.26-.81,4.59,4.59,0,0,0,.07-.94,4,4,0,0,0-.1-.84,2.18,2.18,0,0,0-.27-.65,1.13,1.13,0,0,0-.42-.41,1,1,0,0,0-.58-.1h-.15l-1.73.41.11,4.66,1.73-.41" transform="translate(-1422 -748)"/>
          </g>
          <polygon class="ec33a8c5-090f-40eb-909c-b72064c31f31" points="141.06 303.22 141.1 304.62 137.57 305.46 137.66 309.4 140.87 308.63 140.9 310.04 137.7 310.8 137.82 316.32 136.98 316.53 136.69 304.26 141.06 303.22"/>
        </g>
      </g>
      <g id="54ac38c8-318c-499a-bdb6-28f2aac22265" data-name="PS3">
        <polygon class="d292004b-ceec-48b7-b474-784a937d37f8" points="388.24 173.06 38.95 214.68 105.97 230.63 448.55 180.05 388.24 173.06"/>
        <polygon class="6fb2333c-514b-4c03-b19d-52bb3587576f" points="105.94 229.27 106.33 251.09 39.26 231.97 38.95 214.68 105.94 229.27"/>
        <polygon class="a4b86d82-56f6-4a77-9986-0b540c5619dd" points="106.33 251.09 448.74 190.54 448.55 180.05 105.94 229.27 106.33 251.09"/>
        <g>
          <path class="ec33a8c5-090f-40eb-909c-b72064c31f31" d="M1546.11,979.11a1.54,1.54,0,0,1,.89.14,1.82,1.82,0,0,1,.69.63,3.37,3.37,0,0,1,.45,1.08,6.32,6.32,0,0,1,.16,1.49,7.09,7.09,0,0,1-.17,1.59,4.79,4.79,0,0,1-.48,1.27,3,3,0,0,1-.73.88,2.08,2.08,0,0,1-.93.43l-1.75.32v4.87l-.85.15V979.59l2.6-.47h.11Zm-.13,6.12a1.38,1.38,0,0,0,.64-.3,1.87,1.87,0,0,0,.46-.59,3.09,3.09,0,0,0,.28-.8,4.57,4.57,0,0,0,.09-.94,4,4,0,0,0-.09-.87,2.21,2.21,0,0,0-.26-.68,1.14,1.14,0,0,0-.43-.43,1,1,0,0,0-.61-.1H1546l-1.73.31v4.69l1.74-.31" transform="translate(-1422 -748)"/>
          <polygon class="ec33a8c5-090f-40eb-909c-b72064c31f31" points="139.93 228.25 139.93 229.66 136.4 230.3 136.4 234.27 139.6 233.69 139.6 235.1 136.39 235.68 136.39 241.22 135.55 241.37 135.56 229.04 139.93 228.25"/>
          <path class="ec33a8c5-090f-40eb-909c-b72064c31f31" d="M1551.81,977.89a2.88,2.88,0,0,1,.5,0,2.3,2.3,0,0,1,.45.07,1.86,1.86,0,0,1,.39.15,1.56,1.56,0,0,1,.32.22v1.49a2.07,2.07,0,0,0-.81-.44,2.23,2.23,0,0,0-.45-.08,2.45,2.45,0,0,0-.46,0h-.14a1.92,1.92,0,0,0-.65.24,1.71,1.71,0,0,0-.5.45,2,2,0,0,0-.32.64,2.93,2.93,0,0,0-.11.83,2.41,2.41,0,0,0,.1.73,1.36,1.36,0,0,0,.28.5,1.83,1.83,0,0,0,.46.36,5.43,5.43,0,0,0,.62.3l.48.22a4.67,4.67,0,0,1,.73.39,2.43,2.43,0,0,1,.61.57,2.64,2.64,0,0,1,.42.89,5.1,5.1,0,0,1,.16,1.35,5.92,5.92,0,0,1-.2,1.57,4,4,0,0,1-.53,1.19,2.93,2.93,0,0,1-.79.79,2.57,2.57,0,0,1-1,.39h-.18a2.94,2.94,0,0,1-.7,0,2.74,2.74,0,0,1-.61-.14,2.43,2.43,0,0,1-.5-.25,1.85,1.85,0,0,1-.37-.31v-1.5a2.94,2.94,0,0,0,.42.36,2.59,2.59,0,0,0,.51.28,2.42,2.42,0,0,0,.59.16,2.59,2.59,0,0,0,.68,0h.17a1.9,1.9,0,0,0,.72-.28,1.82,1.82,0,0,0,.51-.52,2.37,2.37,0,0,0,.31-.71,3.39,3.39,0,0,0,.1-.85,2.91,2.91,0,0,0-.09-.77,1.53,1.53,0,0,0-.26-.54,1.69,1.69,0,0,0-.43-.39,3.93,3.93,0,0,0-.6-.3l-.5-.22a6,6,0,0,1-.79-.4,2.43,2.43,0,0,1-.63-.55,2.34,2.34,0,0,1-.42-.84,4.68,4.68,0,0,1-.15-1.27,5.31,5.31,0,0,1,.19-1.47,3.86,3.86,0,0,1,.52-1.14,2.94,2.94,0,0,1,.77-.78,2.45,2.45,0,0,1,.93-.39h.18Z" transform="translate(-1422 -748)"/>
          <polygon class="ec33a8c5-090f-40eb-909c-b72064c31f31" points="142.15 227.86 142.14 238.76 145.49 238.15 145.49 239.55 141.3 240.32 141.31 228.01 142.15 227.86"/>
          <path class="ec33a8c5-090f-40eb-909c-b72064c31f31" d="M1595,970.32v1.24l-1.87,3.88h.08a1.51,1.51,0,0,1,.82.12,1.68,1.68,0,0,1,.67.57,3,3,0,0,1,.45,1,6.11,6.11,0,0,1,.16,1.49,7.62,7.62,0,0,1-.18,1.65,5.34,5.34,0,0,1-.5,1.36,3.29,3.29,0,0,1-.77,1,2.18,2.18,0,0,1-1,.48h-.17a2.48,2.48,0,0,1-.47,0,2.18,2.18,0,0,1-.46-.08,2,2,0,0,1-.43-.18,2.06,2.06,0,0,1-.39-.29v-1.46a2.35,2.35,0,0,0,.41.33,2.13,2.13,0,0,0,.44.21,2.06,2.06,0,0,0,.91.09h.14a1.53,1.53,0,0,0,.72-.35,2.19,2.19,0,0,0,.52-.67,3.59,3.59,0,0,0,.31-.9,5,5,0,0,0,.11-1,4.11,4.11,0,0,0-.09-.9,2,2,0,0,0-.27-.68,1.1,1.1,0,0,0-.45-.4,1.12,1.12,0,0,0-.62-.09H1593l-.21.05-.19.08-.18.1-.15.13-.34-.86,2.12-4.46-2.94.53V971Z" transform="translate(-1422 -748)"/>
          <path class="ec33a8c5-090f-40eb-909c-b72064c31f31" d="M1585.57,979.13l2.4,4.66-1,.19-2.36-4.63-1.14.21v5.07l-.83.15,0-12.23,2.6-.47h.1a1.49,1.49,0,0,1,.85.14,1.75,1.75,0,0,1,.67.6,3.2,3.2,0,0,1,.44,1,6,6,0,0,1,.16,1.43,6.75,6.75,0,0,1-.14,1.37,4.93,4.93,0,0,1-.38,1.14,3.28,3.28,0,0,1-.58.85A2.17,2.17,0,0,1,1585.57,979.13Zm-2.14-1,1.75-.32a1.34,1.34,0,0,0,.62-.29,1.8,1.8,0,0,0,.44-.55,2.89,2.89,0,0,0,.27-.74,4.09,4.09,0,0,0,.09-.86,3.69,3.69,0,0,0-.08-.81,2,2,0,0,0-.25-.64,1.08,1.08,0,0,0-.41-.4,1,1,0,0,0-.58-.09h-.07l-1.75.32v4.37" transform="translate(-1422 -748)"/>
          <path class="ec33a8c5-090f-40eb-909c-b72064c31f31" d="M1581.11,979.24a15.09,15.09,0,0,1-.19,2.42,8.87,8.87,0,0,1-.55,2,4.37,4.37,0,0,1-.92,1.43,2.49,2.49,0,0,1-1.3.7H1578a1.76,1.76,0,0,1-1.25-.29,2.73,2.73,0,0,1-.89-1.11,6.78,6.78,0,0,1-.53-1.78,13.93,13.93,0,0,1-.17-2.31v-.63a15,15,0,0,1,.19-2.42,8.83,8.83,0,0,1,.56-2,4.34,4.34,0,0,1,.93-1.43,2.48,2.48,0,0,1,1.3-.69h.13a1.76,1.76,0,0,1,1.24.29,2.73,2.73,0,0,1,.88,1.11,6.79,6.79,0,0,1,.52,1.78,13.93,13.93,0,0,1,.17,2.3Zm-3,5.15a1.76,1.76,0,0,0,1-.53,3.26,3.26,0,0,0,.66-1.09,7.13,7.13,0,0,0,.39-1.53,13,13,0,0,0,.13-1.85v-.59a12.06,12.06,0,0,0-.11-1.77,5.58,5.58,0,0,0-.36-1.38,2.07,2.07,0,0,0-.63-.87,1.24,1.24,0,0,0-.92-.23h-.1a1.76,1.76,0,0,0-1,.53,3.23,3.23,0,0,0-.66,1.09,7.08,7.08,0,0,0-.38,1.53,13,13,0,0,0-.12,1.85v.6a12.29,12.29,0,0,0,.12,1.77,5.63,5.63,0,0,0,.36,1.38,2.07,2.07,0,0,0,.63.87,1.23,1.23,0,0,0,.92.23h.1" transform="translate(-1422 -748)"/>
          <path class="ec33a8c5-090f-40eb-909c-b72064c31f31" d="M1574.07,980.53a15.08,15.08,0,0,1-.19,2.42,8.87,8.87,0,0,1-.55,2,4.38,4.38,0,0,1-.93,1.43,2.5,2.5,0,0,1-1.3.7H1571a1.78,1.78,0,0,1-1.25-.29,2.74,2.74,0,0,1-.89-1.11,6.76,6.76,0,0,1-.53-1.79,13.82,13.82,0,0,1-.17-2.31V981a15.06,15.06,0,0,1,.19-2.43,8.83,8.83,0,0,1,.56-2,4.34,4.34,0,0,1,.93-1.43,2.5,2.5,0,0,1,1.31-.69h.13a1.77,1.77,0,0,1,1.25.29,2.74,2.74,0,0,1,.89,1.11,6.78,6.78,0,0,1,.53,1.79,13.83,13.83,0,0,1,.17,2.31Zm-3,5.16a1.77,1.77,0,0,0,1-.53,3.27,3.27,0,0,0,.66-1.1,7.13,7.13,0,0,0,.39-1.54,13,13,0,0,0,.13-1.86v-.6a12.06,12.06,0,0,0-.12-1.78,5.58,5.58,0,0,0-.37-1.38,2.07,2.07,0,0,0-.63-.87,1.24,1.24,0,0,0-.92-.23h-.1a1.78,1.78,0,0,0-1,.53,3.23,3.23,0,0,0-.67,1.09,7.08,7.08,0,0,0-.38,1.54,13.07,13.07,0,0,0-.13,1.86v.6a12.22,12.22,0,0,0,.11,1.78,5.6,5.6,0,0,0,.36,1.39,2.06,2.06,0,0,0,.63.87,1.25,1.25,0,0,0,.92.23h.1" transform="translate(-1422 -748)"/>
        </g>
      </g>
      <g id="106dc112-b032-4bff-a37a-cd021e32e7cc" data-name="PS4">
        <polygon class="44da6b25-82d1-4c83-aab2-76d82c665af1" points="384.75 131.13 39.49 157.32 105.53 166.03 447.78 136.33 384.75 131.13"/>
        <polygon class="1fd57eb0-7c04-4d83-b1f4-1c375ee050aa" points="106.33 166.16 105.95 186.3 39.6 174.99 39.33 157.32 106.33 166.16"/>
        <polygon class="033fb481-5523-4970-968a-f97233db9a92" points="106.11 186.3 447.78 146.31 447.78 136.33 105.53 166.03 106.11 186.3"/>
        <g class="1e8464ac-ea4a-491d-a699-6c436aa9e3d9">
          <path class="ec33a8c5-090f-40eb-909c-b72064c31f31" d="M1591.55,918.35l1-.13,0,1.29-1,.13-.07,2.67-.8.1.07-2.67-3.15.39,0-1.24,3-8.67,1.19-.14Zm-.8.1.18-6.95-2.49,7.23,2.3-.28" transform="translate(-1422 -748)"/>
          <path class="ec33a8c5-090f-40eb-909c-b72064c31f31" d="M1582.54,918.32l2.28,4.82-1,.13-2.23-4.8-1.14.14-.13,5.09-.83.1.32-12.29,2.59-.31a1.52,1.52,0,0,1,.88.14,1.78,1.78,0,0,1,.68.63,3.26,3.26,0,0,1,.43,1.08,6,6,0,0,1,.13,1.47,6.72,6.72,0,0,1-.17,1.37,4.8,4.8,0,0,1-.41,1.12,3.13,3.13,0,0,1-.6.82A2.07,2.07,0,0,1,1582.54,918.32Zm-2.1-1.1,1.75-.21a1.28,1.28,0,0,0,.62-.25,1.72,1.72,0,0,0,.45-.53,2.82,2.82,0,0,0,.28-.73,4.1,4.1,0,0,0,.11-.86,3.79,3.79,0,0,0-.07-.84,2.08,2.08,0,0,0-.24-.67,1.1,1.1,0,0,0-.43-.42,1,1,0,0,0-.61-.1l-1.75.21-.11,4.39" transform="translate(-1422 -748)"/>
          <path class="ec33a8c5-090f-40eb-909c-b72064c31f31" d="M1575.32,911.88a1.8,1.8,0,0,1,1.29.3,2.75,2.75,0,0,1,.89,1.15,6.87,6.87,0,0,1,.5,1.84,14.11,14.11,0,0,1,.12,2.37l0,.63a15.16,15.16,0,0,1-.24,2.42,8.72,8.72,0,0,1-.6,2,4.17,4.17,0,0,1-1,1.38,2.36,2.36,0,0,1-1.31.62,1.82,1.82,0,0,1-1.3-.29,2.73,2.73,0,0,1-.9-1.15,6.83,6.83,0,0,1-.5-1.84,14.13,14.13,0,0,1-.12-2.38l0-.63a15.07,15.07,0,0,1,.24-2.42,8.66,8.66,0,0,1,.6-2,4.15,4.15,0,0,1,1-1.38A2.37,2.37,0,0,1,1575.32,911.88Zm2,6.38,0-.61a12.2,12.2,0,0,0-.08-1.82,5.64,5.64,0,0,0-.35-1.42,2.08,2.08,0,0,0-.64-.9,1.27,1.27,0,0,0-.95-.24,1.68,1.68,0,0,0-1,.47,3.09,3.09,0,0,0-.69,1.06,7,7,0,0,0-.42,1.52,13.17,13.17,0,0,0-.17,1.85l0,.61a12.38,12.38,0,0,0,.07,1.82,5.6,5.6,0,0,0,.34,1.42,2,2,0,0,0,.64.89,1.28,1.28,0,0,0,1,.23,1.68,1.68,0,0,0,1-.47,3.12,3.12,0,0,0,.69-1.06,7,7,0,0,0,.42-1.51,12.93,12.93,0,0,0,.17-1.85" transform="translate(-1422 -748)"/>
          <path class="ec33a8c5-090f-40eb-909c-b72064c31f31" d="M1568.27,912.73a1.81,1.81,0,0,1,1.29.3,2.76,2.76,0,0,1,.89,1.15,6.87,6.87,0,0,1,.5,1.84,14.11,14.11,0,0,1,.12,2.37l0,.63a15.16,15.16,0,0,1-.24,2.42,8.73,8.73,0,0,1-.6,2,4.18,4.18,0,0,1-1,1.38,2.37,2.37,0,0,1-1.31.62,1.83,1.83,0,0,1-1.3-.29,2.74,2.74,0,0,1-.9-1.15,6.83,6.83,0,0,1-.51-1.85,14.12,14.12,0,0,1-.12-2.38l0-.63a15.07,15.07,0,0,1,.25-2.42,8.67,8.67,0,0,1,.6-2,4.16,4.16,0,0,1,1-1.38A2.39,2.39,0,0,1,1568.27,912.73Zm2,6.4,0-.61a12.2,12.2,0,0,0-.08-1.82,5.65,5.65,0,0,0-.35-1.43,2.09,2.09,0,0,0-.64-.9,1.28,1.28,0,0,0-1-.24,1.69,1.69,0,0,0-1,.47,3.1,3.1,0,0,0-.69,1.06,7,7,0,0,0-.42,1.52A13.17,13.17,0,0,0,1566,919l0,.61a12.37,12.37,0,0,0,.08,1.83,5.61,5.61,0,0,0,.34,1.42,2.05,2.05,0,0,0,.64.89,1.29,1.29,0,0,0,1,.23,1.69,1.69,0,0,0,1-.47,3.12,3.12,0,0,0,.69-1.06,7,7,0,0,0,.42-1.52,12.93,12.93,0,0,0,.17-1.85" transform="translate(-1422 -748)"/>
          <polygon class="ec33a8c5-090f-40eb-909c-b72064c31f31" points="139.31 165.75 139.03 176.7 142.38 176.28 142.34 177.7 138.16 178.22 138.47 165.85 139.31 165.75"/>
          <polygon class="ec33a8c5-090f-40eb-909c-b72064c31f31" points="137.1 166.02 137.06 167.43 133.53 167.86 133.43 171.84 136.64 171.45 136.6 172.86 133.39 173.26 133.25 178.83 132.41 178.94 132.73 166.55 137.1 166.02"/>
          <path class="ec33a8c5-090f-40eb-909c-b72064c31f31" d="M1548.8,915.08a3,3,0,0,1,.56,0,2.43,2.43,0,0,1,.5.08,2,2,0,0,1,.43.17,1.68,1.68,0,0,1,.35.25l0,1.49a2.15,2.15,0,0,0-.86-.51,2.25,2.25,0,0,0-.48-.09,2.41,2.41,0,0,0-.5,0,1.84,1.84,0,0,0-.65.2,1.62,1.62,0,0,0-.5.42,2,2,0,0,0-.33.63,3,3,0,0,0-.13.83,2.45,2.45,0,0,0,.08.73,1.43,1.43,0,0,0,.27.52,1.92,1.92,0,0,0,.45.39,5.52,5.52,0,0,0,.61.34l.47.25a4.88,4.88,0,0,1,.72.43,2.56,2.56,0,0,1,.6.61,2.77,2.77,0,0,1,.4.92,5.22,5.22,0,0,1,.12,1.36,5.91,5.91,0,0,1-.23,1.56,3.84,3.84,0,0,1-.56,1.16,2.78,2.78,0,0,1-.81.75,2.46,2.46,0,0,1-1,.34,3,3,0,0,1-.76,0,2.81,2.81,0,0,1-.66-.17,2.56,2.56,0,0,1-.54-.29,2,2,0,0,1-.39-.36l0-1.51a3.09,3.09,0,0,0,.44.41,2.67,2.67,0,0,0,.54.32,2.47,2.47,0,0,0,.63.19,2.66,2.66,0,0,0,.73,0,1.82,1.82,0,0,0,.72-.24,1.73,1.73,0,0,0,.52-.49,2.29,2.29,0,0,0,.32-.69,3.37,3.37,0,0,0,.12-.84,3,3,0,0,0-.07-.79,1.62,1.62,0,0,0-.25-.56,1.77,1.77,0,0,0-.42-.41,4,4,0,0,0-.58-.34l-.49-.24a6.3,6.3,0,0,1-.78-.45,2.57,2.57,0,0,1-.61-.59,2.47,2.47,0,0,1-.39-.87,4.77,4.77,0,0,1-.12-1.28,5.32,5.32,0,0,1,.23-1.46,3.74,3.74,0,0,1,.55-1.11,2.79,2.79,0,0,1,.79-.73A2.33,2.33,0,0,1,1548.8,915.08Z" transform="translate(-1422 -748)"/>
          <path class="ec33a8c5-090f-40eb-909c-b72064c31f31" d="M1543.18,915.94a1.57,1.57,0,0,1,.92.15,1.86,1.86,0,0,1,.71.67,3.45,3.45,0,0,1,.45,1.13,6.43,6.43,0,0,1,.13,1.54,7.11,7.11,0,0,1-.21,1.59,4.69,4.69,0,0,1-.51,1.25,2.86,2.86,0,0,1-.75.84,2,2,0,0,1-.93.38l-1.75.22-.12,4.89-.85.11.31-12.44Zm-.18,6.13a1.34,1.34,0,0,0,.65-.26,1.78,1.78,0,0,0,.47-.56,3,3,0,0,0,.29-.78,4.59,4.59,0,0,0,.11-.93,4.14,4.14,0,0,0-.07-.9,2.26,2.26,0,0,0-.26-.71,1.17,1.17,0,0,0-.45-.45,1.06,1.06,0,0,0-.64-.11l-1.73.21-.12,4.71,1.73-.21" transform="translate(-1422 -748)"/>
        </g>
      </g>
      <g id="124b5020-f7f4-454d-be93-5691de964c7e" data-name="PS5">
        <polygon class="c74581d6-2605-4824-bc1c-53f15c65adc1" points="379.5 87.5 38.94 104.5 101.97 111.06 446.79 90 379.5 87.5"/>
        <polygon class="9f8a57f1-aacf-4fe2-8765-99f8b8c45fee" points="105.37 109.31 106.04 130.79 39.97 123.66 39.94 104.5 105.37 109.31"/>
        <polygon class="67e1ff85-cc2a-4448-a404-ba5bcb8a3cfc" points="105.04 130.79 446.85 103.15 446.79 90 104.82 109.23 105.04 130.79"/>
        <g>
          <path class="ec33a8c5-090f-40eb-909c-b72064c31f31" d="M1539.91,860.16a1.58,1.58,0,0,1,.91.19,1.92,1.92,0,0,1,.69.7,3.55,3.55,0,0,1,.43,1.15,6.5,6.5,0,0,1,.1,1.55,7.17,7.17,0,0,1-.23,1.56,4.66,4.66,0,0,1-.51,1.22,2.83,2.83,0,0,1-.74.82,1.94,1.94,0,0,1-.91.37h-.07l-1.75.14-.21,4.89-.85.07.54-12.46Zm-.22,6.13a1.28,1.28,0,0,0,.62-.25,1.77,1.77,0,0,0,.46-.54,3,3,0,0,0,.3-.76,4.59,4.59,0,0,0,.13-.91,4.2,4.2,0,0,0-.05-.91,2.33,2.33,0,0,0-.24-.73,1.21,1.21,0,0,0-.44-.47,1.07,1.07,0,0,0-.63-.14l-1.73.14-.2,4.72,1.73-.14h.06" transform="translate(-1422 -748)"/>
          <path class="ec33a8c5-090f-40eb-909c-b72064c31f31" d="M1545.43,859.54h.09a3,3,0,0,1,.56,0,2.47,2.47,0,0,1,.5.11,2,2,0,0,1,.42.19,1.7,1.7,0,0,1,.34.27l-.07,1.49a2.23,2.23,0,0,0-.4-.32,2.19,2.19,0,0,0-.44-.22,2.27,2.27,0,0,0-.48-.11,2.4,2.4,0,0,0-.49,0h-.09a1.73,1.73,0,0,0-.62.19,1.56,1.56,0,0,0-.48.4,1.93,1.93,0,0,0-.32.6,2.93,2.93,0,0,0-.14.8,2.51,2.51,0,0,0,.06.74,1.48,1.48,0,0,0,.26.54,2,2,0,0,0,.44.41,5.82,5.82,0,0,0,.61.37l.46.27a5,5,0,0,1,.71.46,2.65,2.65,0,0,1,.58.64,2.85,2.85,0,0,1,.38.94,5.31,5.31,0,0,1,.1,1.37,5.92,5.92,0,0,1-.25,1.52,3.81,3.81,0,0,1-.55,1.13,2.72,2.72,0,0,1-.78.73,2.37,2.37,0,0,1-.94.32h-.11a2.91,2.91,0,0,1-.75,0,2.82,2.82,0,0,1-.65-.2,2.62,2.62,0,0,1-.53-.32,2.07,2.07,0,0,1-.38-.38l.07-1.5a3.18,3.18,0,0,0,.43.43,2.74,2.74,0,0,0,.53.35,2.5,2.5,0,0,0,.63.22,2.63,2.63,0,0,0,.73,0h.08a1.73,1.73,0,0,0,.69-.23,1.69,1.69,0,0,0,.5-.48,2.29,2.29,0,0,0,.32-.67,3.41,3.41,0,0,0,.13-.82,3,3,0,0,0-.05-.79,1.66,1.66,0,0,0-.24-.57,1.86,1.86,0,0,0-.41-.43,4.3,4.3,0,0,0-.58-.37l-.49-.26a6.35,6.35,0,0,1-.77-.48,2.65,2.65,0,0,1-.6-.62,2.57,2.57,0,0,1-.38-.89,4.91,4.91,0,0,1-.09-1.3,5.34,5.34,0,0,1,.25-1.42,3.69,3.69,0,0,1,.55-1.07,2.72,2.72,0,0,1,.77-.7A2.28,2.28,0,0,1,1545.43,859.54Z" transform="translate(-1422 -748)"/>
          <polygon class="ec33a8c5-090f-40eb-909c-b72064c31f31" points="135.18 110.81 136.01 110.75 135.54 121.71 138.88 121.44 138.81 122.86 134.64 123.2 135.18 110.81"/>
          <path class="ec33a8c5-090f-40eb-909c-b72064c31f31" d="M1572,857.48a1.82,1.82,0,0,1,1.28.36,2.87,2.87,0,0,1,.87,1.2,7.08,7.08,0,0,1,.47,1.87,14.33,14.33,0,0,1,.08,2.38l0,.63a15.24,15.24,0,0,1-.28,2.38,8.74,8.74,0,0,1-.62,1.94,4.17,4.17,0,0,1-.95,1.35,2.32,2.32,0,0,1-1.28.6h-.09a1.83,1.83,0,0,1-1.28-.35,2.85,2.85,0,0,1-.87-1.19,7,7,0,0,1-.47-1.87,14.32,14.32,0,0,1-.08-2.39l0-.63a15.18,15.18,0,0,1,.28-2.38,8.7,8.7,0,0,1,.62-1.94,4.16,4.16,0,0,1,1-1.35,2.32,2.32,0,0,1,1.28-.6h.09Zm1.86,5.89a12.43,12.43,0,0,0,0-1.83,5.8,5.8,0,0,0-.32-1.44,2.16,2.16,0,0,0-.62-.93,1.28,1.28,0,0,0-.94-.28h-.07a1.65,1.65,0,0,0-.95.46,3.11,3.11,0,0,0-.68,1,7.07,7.07,0,0,0-.43,1.49,13.34,13.34,0,0,0-.2,1.83l0,.6a12.53,12.53,0,0,0,0,1.83,5.76,5.76,0,0,0,.32,1.44,2.14,2.14,0,0,0,.62.92,1.3,1.3,0,0,0,.95.28h.07a1.64,1.64,0,0,0,.94-.46,3.14,3.14,0,0,0,.68-1,7.06,7.06,0,0,0,.43-1.49,13.06,13.06,0,0,0,.2-1.82l0-.6" transform="translate(-1422 -748)"/>
          <path class="ec33a8c5-090f-40eb-909c-b72064c31f31" d="M1565,858a1.84,1.84,0,0,1,1.28.36,2.86,2.86,0,0,1,.87,1.2,7,7,0,0,1,.47,1.87,14.32,14.32,0,0,1,.08,2.39l0,.63a15.26,15.26,0,0,1-.28,2.38,8.76,8.76,0,0,1-.62,1.94,4.18,4.18,0,0,1-.95,1.35,2.32,2.32,0,0,1-1.28.6h-.1a1.85,1.85,0,0,1-1.29-.35,2.85,2.85,0,0,1-.88-1.19,7,7,0,0,1-.47-1.87,14.34,14.34,0,0,1-.08-2.39l0-.64a15.23,15.23,0,0,1,.28-2.38,8.72,8.72,0,0,1,.62-1.94,4.16,4.16,0,0,1,1-1.35,2.33,2.33,0,0,1,1.29-.6h.1Zm1.87,5.9a12.36,12.36,0,0,0,0-1.83,5.77,5.77,0,0,0-.32-1.45,2.16,2.16,0,0,0-.62-.93,1.29,1.29,0,0,0-.95-.28h-.08a1.64,1.64,0,0,0-.95.46,3.11,3.11,0,0,0-.68,1,7.05,7.05,0,0,0-.43,1.49,13.2,13.2,0,0,0-.2,1.83l0,.6a12.57,12.57,0,0,0,0,1.84,5.79,5.79,0,0,0,.32,1.45,2.14,2.14,0,0,0,.62.93,1.29,1.29,0,0,0,.95.28h.08a1.64,1.64,0,0,0,.94-.46,3.13,3.13,0,0,0,.68-1,7.06,7.06,0,0,0,.43-1.49,13.12,13.12,0,0,0,.2-1.82l0-.6" transform="translate(-1422 -748)"/>
          <polygon class="ec33a8c5-090f-40eb-909c-b72064c31f31" points="129.44 111.26 133.8 110.92 133.73 112.34 130.21 112.61 130.04 116.6 133.24 116.34 133.18 117.76 129.98 118.02 129.74 123.59 128.9 123.66 129.44 111.26"/>
          <path class="ec33a8c5-090f-40eb-909c-b72064c31f31" d="M1585.43,856.63l3.43-.26-.06,1.31-2.75.21-.41,3.79.21-.15.24-.13.26-.1.29-.06h.07a1.54,1.54,0,0,1,.86.17,1.8,1.8,0,0,1,.67.65,3.37,3.37,0,0,1,.42,1.13,6.7,6.7,0,0,1,.1,1.58,7.76,7.76,0,0,1-.24,1.62,5.09,5.09,0,0,1-.53,1.3,3,3,0,0,1-.79.9,2.13,2.13,0,0,1-1,.41h-.08a2.29,2.29,0,0,1-1-.13,2.22,2.22,0,0,1-.88-.58l.06-1.47a2.44,2.44,0,0,0,.43.4,2.35,2.35,0,0,0,.47.26,2.21,2.21,0,0,0,.48.14,1.89,1.89,0,0,0,.45,0h.07a1.48,1.48,0,0,0,.73-.3,2.05,2.05,0,0,0,.53-.63,3.5,3.5,0,0,0,.33-.87,5.17,5.17,0,0,0,.14-1,4.31,4.31,0,0,0-.05-.95,2.17,2.17,0,0,0-.25-.72,1.15,1.15,0,0,0-.45-.45,1.17,1.17,0,0,0-.65-.12h-.08a1.52,1.52,0,0,0-.32.08,1.6,1.6,0,0,0-.29.14,1.8,1.8,0,0,0-.26.19,2.06,2.06,0,0,0-.22.23l-.63-.36Z" transform="translate(-1422 -748)"/>
          <path class="ec33a8c5-090f-40eb-909c-b72064c31f31" d="M1579.07,864.26l2.18,4.93-1,.09-2.14-4.9-1.14.1-.22,5.09-.83.07.54-12.31,2.59-.2a1.52,1.52,0,0,1,.87.18,1.85,1.85,0,0,1,.67.66,3.36,3.36,0,0,1,.41,1.1,6.12,6.12,0,0,1,.1,1.48,6.76,6.76,0,0,1-.2,1.36,4.74,4.74,0,0,1-.43,1.1,3,3,0,0,1-.61.8A2,2,0,0,1,1579.07,864.26Zm-.33-1.34h.06a1.23,1.23,0,0,0,.6-.24,1.68,1.68,0,0,0,.44-.51,2.8,2.8,0,0,0,.28-.71,4.12,4.12,0,0,0,.12-.84,3.81,3.81,0,0,0,0-.85,2.15,2.15,0,0,0-.23-.68,1.15,1.15,0,0,0-.42-.44,1,1,0,0,0-.6-.13l-1.74.14-.19,4.39,1.74-.14" transform="translate(-1422 -748)"/>
        </g>
      </g>
      <g id="89674db7-6931-4b0f-88ff-2191ec184135" data-name="PS6">
        <polygon class="fe7d61bd-86f7-4359-a27c-b9851be7036a" points="378.96 41.09 35.61 51.77 102.51 56.38 446.75 43.33 378.96 41.09"/>
        <polygon class="a6482c5e-cdb6-4f4c-8b17-b4355d1f21eb" points="104.04 54 104.04 75.29 35.96 71.33 35.61 51.77 104.04 54"/>
        <polygon class="ce70491d-cfa4-4294-b181-e559d22d8ae1" points="104.04 75.29 446.81 56.38 446.75 43.33 103.37 53.98 104.04 75.29"/>
        <g class="1e8464ac-ea4a-491d-a699-6c436aa9e3d9">
          <path class="ec33a8c5-090f-40eb-909c-b72064c31f31" d="M1589.42,807.7a1.49,1.49,0,0,1,.9.22,1.81,1.81,0,0,1,.63.74,4,4,0,0,1,.35,1.21,8.54,8.54,0,0,1,.05,1.63,9.43,9.43,0,0,1-.22,1.57,6.22,6.22,0,0,1-.47,1.35,3.19,3.19,0,0,1-.71,1,1.75,1.75,0,0,1-1,.45h-.12a1.51,1.51,0,0,1-1-.27,2.11,2.11,0,0,1-.68-.87,4.79,4.79,0,0,1-.37-1.37,9.57,9.57,0,0,1-.05-1.78l0-.52a12.77,12.77,0,0,1,.38-2.44,15,15,0,0,1,.74-2.16,15.67,15.67,0,0,1,.9-1.79,12.33,12.33,0,0,1,.87-1.3l1.18-.05c-.25.32-.51.66-.77,1s-.52.77-.76,1.2a15,15,0,0,0-.7,1.36,13.23,13.23,0,0,0-.57,1.52,2.72,2.72,0,0,1,.27-.28,2,2,0,0,1,.29-.22,1.66,1.66,0,0,1,.31-.15,1.52,1.52,0,0,1,.33-.08h.11Zm-.37,6.83a1.14,1.14,0,0,0,.6-.27,1.9,1.9,0,0,0,.45-.61,3.92,3.92,0,0,0,.3-.89,7.05,7.05,0,0,0,.15-1.12,6.33,6.33,0,0,0,0-1.18,2.53,2.53,0,0,0-.24-.82,1.11,1.11,0,0,0-.43-.47,1.1,1.1,0,0,0-.62-.13h-.07a1.34,1.34,0,0,0-.38.11,1.86,1.86,0,0,0-.38.23,2.41,2.41,0,0,0-.36.35,2.93,2.93,0,0,0-.32.46l0,.23,0,.23,0,.23,0,.23,0,.36a7.88,7.88,0,0,0,0,1.29,3.64,3.64,0,0,0,.23,1,1.45,1.45,0,0,0,.44.61,1,1,0,0,0,.65.19h.08" transform="translate(-1422 -748)"/>
          <path class="ec33a8c5-090f-40eb-909c-b72064c31f31" d="M1581.57,810.94l2.12,5-1,.06-2.07-5-1.14.06-.28,5.1-.83,0,.68-12.3,2.59-.14a1.52,1.52,0,0,1,.87.21,1.9,1.9,0,0,1,.66.69,3.44,3.44,0,0,1,.4,1.11,6.15,6.15,0,0,1,.08,1.49,6.72,6.72,0,0,1-.21,1.36,4.67,4.67,0,0,1-.44,1.1,3,3,0,0,1-.62.78A1.93,1.93,0,0,1,1581.57,810.94Zm-.31-1.34h.08a1.22,1.22,0,0,0,.59-.24,1.69,1.69,0,0,0,.44-.5,2.8,2.8,0,0,0,.29-.7,4.09,4.09,0,0,0,.13-.83,3.88,3.88,0,0,0,0-.85,2.18,2.18,0,0,0-.22-.68,1.16,1.16,0,0,0-.41-.45,1,1,0,0,0-.6-.14l-1.74.09-.24,4.4,1.74-.09" transform="translate(-1422 -748)"/>
          <path class="ec33a8c5-090f-40eb-909c-b72064c31f31" d="M1574.58,803.95a1.84,1.84,0,0,1,1.27.4,2.94,2.94,0,0,1,.85,1.22,7.2,7.2,0,0,1,.44,1.89,14.44,14.44,0,0,1,.05,2.39l0,.63a15.3,15.3,0,0,1-.3,2.35,8.79,8.79,0,0,1-.62,1.91,4.18,4.18,0,0,1-.94,1.33,2.28,2.28,0,0,1-1.25.59h-.16a1.85,1.85,0,0,1-1.28-.39,2.92,2.92,0,0,1-.86-1.22,7.16,7.16,0,0,1-.45-1.89,14.41,14.41,0,0,1-.05-2.39l0-.64a15.18,15.18,0,0,1,.3-2.35,8.7,8.7,0,0,1,.63-1.92,4.15,4.15,0,0,1,.95-1.33,2.3,2.3,0,0,1,1.26-.59h.15Zm1.79,6a12.41,12.41,0,0,0,0-1.83,5.86,5.86,0,0,0-.3-1.45,2.21,2.21,0,0,0-.61-.95,1.3,1.3,0,0,0-.94-.31h-.11a1.62,1.62,0,0,0-.93.45,3.11,3.11,0,0,0-.68,1,7.07,7.07,0,0,0-.44,1.47,13.22,13.22,0,0,0-.21,1.81l0,.6a12.47,12.47,0,0,0,0,1.83,5.85,5.85,0,0,0,.3,1.45,2.2,2.2,0,0,0,.61.94,1.3,1.3,0,0,0,.94.3h.11a1.61,1.61,0,0,0,.92-.45,3.14,3.14,0,0,0,.68-1,7.08,7.08,0,0,0,.44-1.47,13.08,13.08,0,0,0,.21-1.8l0-.6" transform="translate(-1422 -748)"/>
          <path class="ec33a8c5-090f-40eb-909c-b72064c31f31" d="M1567.55,804.31a1.84,1.84,0,0,1,1.28.39,2.93,2.93,0,0,1,.85,1.22,7.2,7.2,0,0,1,.45,1.89,14.44,14.44,0,0,1,.05,2.39l0,.64a15.3,15.3,0,0,1-.3,2.35,8.8,8.8,0,0,1-.63,1.92,4.19,4.19,0,0,1-.94,1.33,2.29,2.29,0,0,1-1.26.6h-.16a1.86,1.86,0,0,1-1.28-.39,2.93,2.93,0,0,1-.86-1.22,7.15,7.15,0,0,1-.45-1.89,14.37,14.37,0,0,1-.05-2.4l0-.64a15.13,15.13,0,0,1,.3-2.36,8.71,8.71,0,0,1,.63-1.92,4.16,4.16,0,0,1,.95-1.33,2.29,2.29,0,0,1,1.26-.59h.16Zm1.8,6a12.47,12.47,0,0,0,0-1.84,5.88,5.88,0,0,0-.3-1.46,2.22,2.22,0,0,0-.61-.95,1.31,1.31,0,0,0-.94-.31h-.12a1.63,1.63,0,0,0-.93.45,3.12,3.12,0,0,0-.68,1,7.07,7.07,0,0,0-.44,1.48,13.22,13.22,0,0,0-.21,1.81l0,.6a12.66,12.66,0,0,0,0,1.84,5.87,5.87,0,0,0,.3,1.46,2.19,2.19,0,0,0,.61.94,1.31,1.31,0,0,0,.94.3h.11a1.63,1.63,0,0,0,.93-.46,3.14,3.14,0,0,0,.68-1,7.07,7.07,0,0,0,.44-1.47,13.09,13.09,0,0,0,.21-1.8l0-.6" transform="translate(-1422 -748)"/>
          <polygon class="ec33a8c5-090f-40eb-909c-b72064c31f31" points="137.78 56.88 138.61 56.84 138.01 67.81 141.35 67.63 141.27 69.05 137.1 69.28 137.78 56.88"/>
          <polygon class="ec33a8c5-090f-40eb-909c-b72064c31f31" points="132.04 57.17 136.4 56.95 136.32 58.37 132.8 58.55 132.59 62.53 135.78 62.37 135.71 63.78 132.51 63.95 132.21 69.53 131.37 69.59 132.04 57.17"/>
          <path class="ec33a8c5-090f-40eb-909c-b72064c31f31" d="M1548,805.29h.16a3,3,0,0,1,.56,0,2.44,2.44,0,0,1,.49.12,2,2,0,0,1,.42.21,1.77,1.77,0,0,1,.34.28l-.08,1.5a2.22,2.22,0,0,0-.39-.34,2.2,2.2,0,0,0-.44-.23,2.32,2.32,0,0,0-.48-.13,2.52,2.52,0,0,0-.49,0h-.13a1.7,1.7,0,0,0-.6.19,1.53,1.53,0,0,0-.47.39,1.91,1.91,0,0,0-.32.59,2.94,2.94,0,0,0-.14.78,2.53,2.53,0,0,0,.05.74,1.53,1.53,0,0,0,.25.54,2,2,0,0,0,.43.43,5.62,5.62,0,0,0,.6.38l.46.27a5.13,5.13,0,0,1,.71.48,2.73,2.73,0,0,1,.58.66,2.92,2.92,0,0,1,.37,1,5.36,5.36,0,0,1,.08,1.38,5.94,5.94,0,0,1-.26,1.5,3.78,3.78,0,0,1-.55,1.1,2.68,2.68,0,0,1-.77.71,2.34,2.34,0,0,1-.92.32h-.17a2.89,2.89,0,0,1-.75-.05,2.85,2.85,0,0,1-.65-.22,2.68,2.68,0,0,1-.52-.33,2.1,2.1,0,0,1-.37-.38l.08-1.52a3.34,3.34,0,0,0,.42.45,2.81,2.81,0,0,0,.52.36,2.5,2.5,0,0,0,.62.24,2.59,2.59,0,0,0,.73.06h.13a1.69,1.69,0,0,0,.67-.23,1.66,1.66,0,0,0,.49-.46,2.27,2.27,0,0,0,.32-.66,3.4,3.4,0,0,0,.14-.81,3.08,3.08,0,0,0,0-.79,1.71,1.71,0,0,0-.23-.58,1.9,1.9,0,0,0-.4-.45,4.27,4.27,0,0,0-.57-.38l-.49-.28a6.41,6.41,0,0,1-.76-.5,2.72,2.72,0,0,1-.59-.64,2.63,2.63,0,0,1-.37-.9,5,5,0,0,1-.08-1.3,5.33,5.33,0,0,1,.25-1.39,3.68,3.68,0,0,1,.54-1.05,2.68,2.68,0,0,1,.75-.69A2.22,2.22,0,0,1,1548,805.29Z" transform="translate(-1422 -748)"/>
          <path class="ec33a8c5-090f-40eb-909c-b72064c31f31" d="M1542.53,805.75a1.59,1.59,0,0,1,.91.22,2,2,0,0,1,.68.72,3.61,3.61,0,0,1,.41,1.16,6.56,6.56,0,0,1,.08,1.55,7.16,7.16,0,0,1-.24,1.54,4.62,4.62,0,0,1-.51,1.2,2.79,2.79,0,0,1-.72.8,1.91,1.91,0,0,1-.89.36h-.13l-1.75.1-.27,4.9-.85,0,.68-12.47Zm1.24,3.7a4.27,4.27,0,0,0,0-.91,2.38,2.38,0,0,0-.23-.73,1.24,1.24,0,0,0-.43-.48,1.08,1.08,0,0,0-.63-.15l-1.72.09-.26,4.72,1.73-.09h.1a1.26,1.26,0,0,0,.61-.25,1.75,1.75,0,0,0,.45-.53,3,3,0,0,0,.3-.75,4.65,4.65,0,0,0,.14-.9" transform="translate(-1422 -748)"/>
        </g>
      </g>
      <g id="870e6ee9-a4d9-4d3a-b2c7-87b7381b5f05" data-name="PS7">
        <polygon class="d292004b-ceec-48b7-b474-784a937d37f8" points="378.34 0 35.63 4.43 102.53 9.04 446.78 0 378.34 0"/>
        <polygon class="ce70491d-cfa4-4294-b181-e559d22d8ae1" points="103.03 0 103.37 21.66 35.95 22.52 35.63 4.43 103.03 0"/>
        <polygon class="d489188a-b372-4180-b380-1ef2832a33af" points="103.37 21.66 446.83 12.99 446.78 0 103.03 0 103.37 21.66"/>
        <g>
          <polygon class="ec33a8c5-090f-40eb-909c-b72064c31f31" points="132.93 5.09 137.29 4.98 137.19 6.41 133.68 6.48 133.42 10.48 136.61 10.39 136.51 11.82 133.33 11.89 132.96 17.49 132.12 17.5 132.93 5.09"/>
          <g class="1e8464ac-ea4a-491d-a699-6c436aa9e3d9">
            <path class="ec33a8c5-090f-40eb-909c-b72064c31f31" d="M1588.11,752.33l4.49-.1-.08,1.28a25.71,25.71,0,0,0-1.08,2.41c-.34.87-.67,1.81-1,2.77s-.56,2-.78,2.94-.41,2-.54,2.94l-.87,0c.11-.88.28-1.82.5-2.78s.48-1.95.78-2.92.62-1.92,1-2.82.7-1.75,1.06-2.5l-3.56.08Z" transform="translate(-1422 -748)"/>
            <path class="ec33a8c5-090f-40eb-909c-b72064c31f31" d="M1582.33,759.62l2.06,5.07-1,0-2-5-1.13,0-.34,5.1-.83,0,.81-12.32,2.59-.06a1.54,1.54,0,0,1,.86.23,1.94,1.94,0,0,1,.65.7,3.5,3.5,0,0,1,.38,1.12,6.21,6.21,0,0,1,.07,1.49,6.7,6.7,0,0,1-.22,1.36,4.62,4.62,0,0,1-.45,1.09,2.93,2.93,0,0,1-.63.77A1.92,1.92,0,0,1,1582.33,759.62Zm-.3-1.36h.12a1.2,1.2,0,0,0,.58-.23,1.67,1.67,0,0,0,.43-.49,2.79,2.79,0,0,0,.29-.69,4.14,4.14,0,0,0,.14-.82,3.92,3.92,0,0,0,0-.85,2.23,2.23,0,0,0-.22-.69,1.2,1.2,0,0,0-.41-.46,1.06,1.06,0,0,0-.6-.16l-1.74,0-.29,4.4,1.74,0" transform="translate(-1422 -748)"/>
            <path class="ec33a8c5-090f-40eb-909c-b72064c31f31" d="M1575.45,752.43a1.85,1.85,0,0,1,1.26.43,3,3,0,0,1,.83,1.25,7.31,7.31,0,0,1,.42,1.9,14.53,14.53,0,0,1,0,2.39l0,.64a15.27,15.27,0,0,1-.32,2.32,8.76,8.76,0,0,1-.63,1.89,4.17,4.17,0,0,1-.94,1.31,2.25,2.25,0,0,1-1.23.58h-.22a1.86,1.86,0,0,1-1.27-.42,3,3,0,0,1-.84-1.24,7.27,7.27,0,0,1-.43-1.9,14.5,14.5,0,0,1,0-2.4l0-.64a15.25,15.25,0,0,1,.32-2.33,8.73,8.73,0,0,1,.63-1.89A4.15,4.15,0,0,1,1574,753a2.26,2.26,0,0,1,1.24-.58h.22Zm1.71,6a12.58,12.58,0,0,0,0-1.84,6,6,0,0,0-.28-1.47,2.25,2.25,0,0,0-.59-1,1.31,1.31,0,0,0-.93-.33h-.16a1.6,1.6,0,0,0-.91.45,3.12,3.12,0,0,0-.67,1,7.07,7.07,0,0,0-.45,1.45,13.19,13.19,0,0,0-.23,1.78l0,.6a12.71,12.71,0,0,0,0,1.84,6,6,0,0,0,.28,1.47,2.23,2.23,0,0,0,.59,1,1.31,1.31,0,0,0,.93.33h.16a1.59,1.59,0,0,0,.91-.45,3.14,3.14,0,0,0,.67-1,7.12,7.12,0,0,0,.45-1.45,13.22,13.22,0,0,0,.23-1.78l0-.6" transform="translate(-1422 -748)"/>
            <path class="ec33a8c5-090f-40eb-909c-b72064c31f31" d="M1568.42,752.59a1.86,1.86,0,0,1,1.27.43,3,3,0,0,1,.84,1.25,7.33,7.33,0,0,1,.42,1.91,14.6,14.6,0,0,1,0,2.4l0,.64a15.27,15.27,0,0,1-.33,2.33,8.77,8.77,0,0,1-.64,1.89,4.19,4.19,0,0,1-.94,1.31,2.28,2.28,0,0,1-1.24.59h-.21a1.87,1.87,0,0,1-1.27-.43,3,3,0,0,1-.84-1.25,7.28,7.28,0,0,1-.43-1.91,14.48,14.48,0,0,1,0-2.41l0-.64a15.22,15.22,0,0,1,.32-2.33,8.7,8.7,0,0,1,.64-1.89,4.15,4.15,0,0,1,.94-1.31,2.28,2.28,0,0,1,1.25-.58h.22Zm1.73,6a12.57,12.57,0,0,0,0-1.84,6,6,0,0,0-.29-1.47,2.28,2.28,0,0,0-.6-1,1.32,1.32,0,0,0-.93-.34h-.15a1.61,1.61,0,0,0-.92.45,3.12,3.12,0,0,0-.68,1,7.09,7.09,0,0,0-.45,1.46,13.38,13.38,0,0,0-.23,1.79l0,.6a12.6,12.6,0,0,0,0,1.84,6,6,0,0,0,.28,1.47,2.25,2.25,0,0,0,.6,1,1.31,1.31,0,0,0,.94.33h.15a1.62,1.62,0,0,0,.92-.45,3.14,3.14,0,0,0,.68-1,7.09,7.09,0,0,0,.45-1.46,13.22,13.22,0,0,0,.23-1.79l0-.6" transform="translate(-1422 -748)"/>
            <polygon class="ec33a8c5-090f-40eb-909c-b72064c31f31" points="138.66 4.95 139.5 4.93 138.77 15.91 142.1 15.82 142.01 17.23 137.85 17.35 138.66 4.95"/>
            <path class="ec33a8c5-090f-40eb-909c-b72064c31f31" d="M1548.84,753h.21a2.87,2.87,0,0,1,.56,0,2.42,2.42,0,0,1,.49.14,2.09,2.09,0,0,1,.42.22,1.86,1.86,0,0,1,.34.29l-.1,1.49a2.28,2.28,0,0,0-.39-.35,2.22,2.22,0,0,0-.44-.24,2.29,2.29,0,0,0-.47-.14,2.44,2.44,0,0,0-.49,0h-.2a1.6,1.6,0,0,0-.58.18,1.5,1.5,0,0,0-.45.38,1.91,1.91,0,0,0-.31.58,2.94,2.94,0,0,0-.15.76,2.55,2.55,0,0,0,0,.74,1.55,1.55,0,0,0,.24.55,2.1,2.1,0,0,0,.43.44,5.83,5.83,0,0,0,.6.4l.46.29a5.26,5.26,0,0,1,.7.5,2.79,2.79,0,0,1,.57.67,3,3,0,0,1,.36,1,5.42,5.42,0,0,1,.07,1.38,6,6,0,0,1-.27,1.47,3.77,3.77,0,0,1-.55,1.08,2.64,2.64,0,0,1-.76.7,2.29,2.29,0,0,1-.9.31H1548a2.93,2.93,0,0,1-.75-.08,2.89,2.89,0,0,1-.65-.24,2.71,2.71,0,0,1-.52-.34,2.14,2.14,0,0,1-.37-.4l.1-1.51a3.43,3.43,0,0,0,.42.45,2.88,2.88,0,0,0,.52.38,2.54,2.54,0,0,0,.62.25,2.6,2.6,0,0,0,.72.08h.19a1.61,1.61,0,0,0,.65-.22,1.63,1.63,0,0,0,.48-.45,2.26,2.26,0,0,0,.31-.64,3.37,3.37,0,0,0,.14-.79,3.12,3.12,0,0,0,0-.79,1.75,1.75,0,0,0-.22-.59,1.93,1.93,0,0,0-.4-.46,4.24,4.24,0,0,0-.56-.4l-.48-.29a6.69,6.69,0,0,1-.75-.53,2.79,2.79,0,0,1-.58-.65,2.67,2.67,0,0,1-.35-.91,5,5,0,0,1-.06-1.31,5.33,5.33,0,0,1,.26-1.37,3.64,3.64,0,0,1,.54-1,2.64,2.64,0,0,1,.74-.68A2.21,2.21,0,0,1,1548.84,753Z" transform="translate(-1422 -748)"/>
            <path class="ec33a8c5-090f-40eb-909c-b72064c31f31" d="M1543.44,753.35a1.6,1.6,0,0,1,.91.24,2,2,0,0,1,.68.74,3.7,3.7,0,0,1,.4,1.18,6.63,6.63,0,0,1,.07,1.56,7.14,7.14,0,0,1-.25,1.52,4.61,4.61,0,0,1-.51,1.18,2.78,2.78,0,0,1-.72.79,1.89,1.89,0,0,1-.88.35h-.17l-1.75,0-.32,4.9-.84,0,.81-12.48Zm1.2,3.74a4.26,4.26,0,0,0,0-.91,2.41,2.41,0,0,0-.23-.74,1.27,1.27,0,0,0-.43-.49,1.09,1.09,0,0,0-.63-.17l-1.72,0-.31,4.72,1.72,0h.13a1.23,1.23,0,0,0,.6-.24,1.75,1.75,0,0,0,.45-.52,3,3,0,0,0,.3-.74,4.69,4.69,0,0,0,.14-.89" transform="translate(-1422 -748)"/>
          </g>
        </g>
      </g>
      <g id="c191caa1-e0dc-4020-afa1-473a719b11d4" data-name="LDB1">
        <image class="75ad6947-3a4d-439c-b66f-77eb2dbaf73f" width="318" height="200" transform="translate(364.89 239.88)" xlink:href="Eribuilding2.png"/>
        <g>
          <g>
            <polygon class="5b0fbd8a-6311-484c-969a-36f2fa9983aa" points="560.84 274.26 402.06 357.46 477 380.23 610.29 284.21 560.84 274.26"/>
            <polygon class="73ebb0c0-11b4-47bf-8456-431424f43cf0" points="477 380.23 477 397.65 402.06 372.35 402.06 357.46 477 380.23"/>
            <polygon class="766ac7b9-ae33-4839-b7fe-cb39d8330c9c" points="477 397.65 610.29 291.79 610.29 284.21 477 380.23 477 397.65"/>
          </g>
          <polygon class="73ebb0c0-11b4-47bf-8456-431424f43cf0" points="521.91 347.88 614.79 373.48 614.79 389.56 521.91 361.99 521.91 347.88"/>
          <polygon class="766ac7b9-ae33-4839-b7fe-cb39d8330c9c" points="614.79 389.56 644.94 347.88 644.94 338.2 614.79 373.48 614.79 389.56"/>
          <polygon class="5b0fbd8a-6311-484c-969a-36f2fa9983aa" points="644.94 338.2 561.3 319.5 521.91 347.88 614.79 373.48 644.94 338.2"/>
          <g>
            <path class="4da911d4-0c70-4caa-9a32-6adc0ad8fede" d="M1844.26,1119.49q.06.22.1.45t.08.46q0,.23,0,.47t0,.47q0,.34,0,.66t-.06.61q0,.29-.11.56a4.67,4.67,0,0,1-.16.51,3.48,3.48,0,0,1-.2.44,2.66,2.66,0,0,1-.25.37,2.17,2.17,0,0,1-.29.3,1.94,1.94,0,0,1-.33.23,1.84,1.84,0,0,1-.37.15,1.91,1.91,0,0,1-.39.07,2.24,2.24,0,0,1-.42,0,2.89,2.89,0,0,1-.45-.09l-2.56-.74.69-9,1.35.38.43.14.4.18.37.22.34.25.32.28.29.31q.14.16.26.33t.23.36q.11.18.21.38t.18.4q.08.2.15.42T1844.26,1119.49Zm-1.42,3.87a1.75,1.75,0,0,0,.26-.41,2.76,2.76,0,0,0,.18-.53,4.56,4.56,0,0,0,.1-.65,7.41,7.41,0,0,0,0-.77q0-.2,0-.4t0-.38q0-.18-.07-.36t-.09-.34l-.11-.32-.13-.3-.14-.28-.16-.26-.17-.24-.18-.22-.2-.2-.21-.17-.21-.15-.21-.12-.22-.1-.22-.08-.45-.13-.49,6.46,1,.28a2.91,2.91,0,0,0,.56.11,1.8,1.8,0,0,0,.49,0,1.31,1.31,0,0,0,.41-.15,1.29,1.29,0,0,0,.34-.28" transform="translate(-1422 -748)"/>
            <g class="1e8464ac-ea4a-491d-a699-6c436aa9e3d9">
              <path class="4da911d4-0c70-4caa-9a32-6adc0ad8fede" d="M1867.67,1125.23q.09.25.15.52t.11.54q0,.27.07.56t0,.57q0,.39,0,.76t-.07.7q0,.34-.12.65a5.64,5.64,0,0,1-.18.59,4.62,4.62,0,0,1-.23.53,3.46,3.46,0,0,1-.27.45,2.7,2.7,0,0,1-.31.36,2.28,2.28,0,0,1-.36.28,2,2,0,0,1-.39.2,1.81,1.81,0,0,1-.41.1,2,2,0,0,1-.43,0,2.42,2.42,0,0,1-.45-.09,2.61,2.61,0,0,1-.37-.14,2.77,2.77,0,0,1-.36-.2,3.12,3.12,0,0,1-.34-.26,3.68,3.68,0,0,1-.32-.32,4.25,4.25,0,0,1-.3-.37,4.71,4.71,0,0,1-.26-.42q-.12-.22-.23-.46t-.19-.5q-.09-.26-.16-.53t-.12-.54q0-.28-.07-.56t0-.57q0-.27,0-.52t0-.51q0-.25.07-.49t.1-.47q.06-.23.13-.44t.16-.41q.09-.2.18-.37a3.72,3.72,0,0,1,.21-.34,2.84,2.84,0,0,1,.24-.3,2.4,2.4,0,0,1,.26-.24,2.13,2.13,0,0,1,.28-.19l.3-.14a1.84,1.84,0,0,1,.31-.09l.32,0,.33,0,.35.07a2.6,2.6,0,0,1,.37.14,2.75,2.75,0,0,1,.36.2,3.1,3.1,0,0,1,.34.26,3.66,3.66,0,0,1,.32.31,4.21,4.21,0,0,1,.29.36,4.55,4.55,0,0,1,.26.41q.12.21.22.45T1867.67,1125.23Zm-1,3.83q.07-.22.12-.46t.08-.49q0-.25,0-.52t0-.54q0-.19,0-.38t0-.36q0-.18-.07-.35t-.09-.33q-.05-.16-.11-.31t-.13-.29a2.73,2.73,0,0,0-.15-.26l-.17-.23-.19-.19-.2-.16-.22-.12-.23-.09a1.31,1.31,0,0,0-.29-.05,1.11,1.11,0,0,0-.28,0,1.16,1.16,0,0,0-.27.09,1.45,1.45,0,0,0-.26.16,1.68,1.68,0,0,0-.23.22,2.21,2.21,0,0,0-.21.29,3.05,3.05,0,0,0-.19.35,4.25,4.25,0,0,0-.16.42q-.07.22-.13.46t-.09.48q0,.25,0,.5t0,.52q0,.2,0,.39t0,.38q0,.18.07.36t.09.34q.05.17.12.32t.13.29a2.81,2.81,0,0,0,.15.26l.17.23.19.2.21.16.22.12.23.09a1.28,1.28,0,0,0,.29,0,1.09,1.09,0,0,0,.28,0,1.12,1.12,0,0,0,.27-.09,1.39,1.39,0,0,0,.26-.17,1.78,1.78,0,0,0,.24-.23,2.26,2.26,0,0,0,.21-.29,3.06,3.06,0,0,0,.18-.35,4.24,4.24,0,0,0,.16-.41" transform="translate(-1422 -748)"/>
              <path class="4da911d4-0c70-4caa-9a32-6adc0ad8fede" d="M1874.48,1127.18q.09.26.15.52t.11.54q0,.27.07.56t0,.58q0,.39,0,.76t-.07.7q0,.34-.12.65a5.64,5.64,0,0,1-.18.59,4.62,4.62,0,0,1-.23.53,3.47,3.47,0,0,1-.27.45,2.71,2.71,0,0,1-.31.37,2.29,2.29,0,0,1-.36.28,2,2,0,0,1-.39.2,1.82,1.82,0,0,1-.41.1,2,2,0,0,1-.43,0,2.44,2.44,0,0,1-.45-.09,2.63,2.63,0,0,1-.38-.14,2.79,2.79,0,0,1-.36-.2,3.13,3.13,0,0,1-.34-.26,3.69,3.69,0,0,1-.32-.32,4.28,4.28,0,0,1-.3-.37,4.79,4.79,0,0,1-.26-.42q-.12-.22-.23-.46t-.2-.5q-.09-.26-.16-.53t-.12-.54q0-.28-.07-.56t0-.58q0-.27,0-.52t0-.51q0-.25.07-.49t.1-.47q.06-.23.13-.45t.16-.41q.09-.2.18-.37a3.73,3.73,0,0,1,.21-.34,2.93,2.93,0,0,1,.24-.3,2.38,2.38,0,0,1,.26-.25,2.07,2.07,0,0,1,.28-.19,2,2,0,0,1,.3-.14,1.85,1.85,0,0,1,.31-.09l.32,0,.34,0,.35.07a2.61,2.61,0,0,1,.38.14,2.76,2.76,0,0,1,.36.2,3.11,3.11,0,0,1,.34.26,3.67,3.67,0,0,1,.32.32,4.21,4.21,0,0,1,.29.36,4.55,4.55,0,0,1,.26.41q.12.21.22.45T1874.48,1127.18Zm-1,3.83q.07-.22.13-.46t.09-.49q0-.25,0-.52t0-.55q0-.19,0-.38t0-.36q0-.18-.07-.35t-.09-.33q-.05-.16-.11-.32t-.13-.29a2.73,2.73,0,0,0-.15-.26l-.17-.23-.19-.2-.2-.16-.22-.12-.23-.09a1.33,1.33,0,0,0-.29-.05,1.13,1.13,0,0,0-.28,0,1.14,1.14,0,0,0-.27.09,1.38,1.38,0,0,0-.25.16,1.68,1.68,0,0,0-.24.22,2.22,2.22,0,0,0-.21.29,3.06,3.06,0,0,0-.19.35,4.25,4.25,0,0,0-.16.42q-.07.22-.13.46t-.09.48q0,.25-.05.5t0,.52q0,.2,0,.39t0,.38q0,.18.07.36t.09.34q.05.16.11.32t.14.29a2.81,2.81,0,0,0,.16.26l.18.23.19.2.21.16.22.12.23.09a1.32,1.32,0,0,0,.29.05,1.1,1.1,0,0,0,.28,0,1.12,1.12,0,0,0,.27-.09,1.39,1.39,0,0,0,.26-.17,1.78,1.78,0,0,0,.24-.23,2.23,2.23,0,0,0,.21-.29,3,3,0,0,0,.18-.35,4.08,4.08,0,0,0,.15-.41" transform="translate(-1422 -748)"/>
              <path class="4da911d4-0c70-4caa-9a32-6adc0ad8fede" d="M1879.52,1132.85l1.17,3.57-1.18-.34-.71-2.26-.14-.43-.12-.36-.1-.28-.08-.2-.07-.16-.07-.14-.06-.12-.06-.1-.06-.09-.07-.08-.07-.07-.07-.05-.08-.05-.09,0-.1,0-.11,0-.32-.09-.31,3.86-1.09-.31.75-9.07,1.62.46.29.09.27.12.24.14.22.16.2.17.18.18.16.2.14.21.12.22.11.23q0,.12.09.24t.07.25.05.25,0,.25,0,.25,0,.26a3.38,3.38,0,0,1,0,.41,2.65,2.65,0,0,1-.06.37,2.15,2.15,0,0,1-.11.33,1.86,1.86,0,0,1-.16.29,1.37,1.37,0,0,1-.2.25,1.17,1.17,0,0,1-.24.18,1.2,1.2,0,0,1-.27.11,1.47,1.47,0,0,1-.31,0v.05l.1.11.09.13.08.14.08.15.07.16.07.17.06.18Zm-1-2.44.15-.06.13-.09.11-.11.09-.13a1.08,1.08,0,0,0,.07-.16,1.32,1.32,0,0,0,0-.18,1.7,1.7,0,0,0,0-.2q0-.1,0-.22a2.4,2.4,0,0,0,0-.29,1.89,1.89,0,0,0-.06-.27,1.61,1.61,0,0,0-.09-.24,1.51,1.51,0,0,0-.13-.22,1.4,1.4,0,0,0-.16-.19l-.19-.16-.23-.13-.26-.09-.57-.16-.22,2.73.55.16.22,0,.2,0h.18l.16,0" transform="translate(-1422 -748)"/>
              <polygon class="4da911d4-0c70-4caa-9a32-6adc0ad8fede" points="465.04 380.85 464.21 390 463.15 389.7 463.98 380.55 465.04 380.85"/>
            </g>
            <polygon class="4da911d4-0c70-4caa-9a32-6adc0ad8fede" points="437.49 373.07 436.85 380.86 439.57 381.65 439.47 382.87 435.7 381.79 436.42 372.76 437.49 373.07"/>
            <polygon class="4da911d4-0c70-4caa-9a32-6adc0ad8fede" points="435.37 372.46 435.28 373.73 433.04 373.09 432.85 375.61 434.84 376.18 434.74 377.46 432.74 376.89 432.42 380.84 431.36 380.54 432.09 371.52 435.37 372.46"/>
            <path class="4da911d4-0c70-4caa-9a32-6adc0ad8fede" d="M1849.66,1123.34a3.46,3.46,0,0,1,.15.35,3.51,3.51,0,0,1,.11.37,3.74,3.74,0,0,1,.07.39,4.15,4.15,0,0,1,0,.42,3.8,3.8,0,0,1,0,.6,2.36,2.36,0,0,1-.12.5,1.62,1.62,0,0,1-.21.4,1.38,1.38,0,0,1-.31.3,1.45,1.45,0,0,1-.39.2,1.8,1.8,0,0,1-.46.09,2.69,2.69,0,0,1-.53,0,4.32,4.32,0,0,1-.61-.13l-2-.56.71-9,1.13.32a4.63,4.63,0,0,1,.54.19,3.6,3.6,0,0,1,.47.24,2.93,2.93,0,0,1,.4.29,2.58,2.58,0,0,1,.33.34,2.54,2.54,0,0,1,.26.39,2.7,2.7,0,0,1,.19.44,3.13,3.13,0,0,1,.12.49,3.86,3.86,0,0,1,0,.54q0,.17,0,.32a2.67,2.67,0,0,1,0,.29,2.05,2.05,0,0,1-.06.26,1.65,1.65,0,0,1-.09.23,1.2,1.2,0,0,1-.28.38l-.19.15-.22.12.3.24a3,3,0,0,1,.26.27,3,3,0,0,1,.22.3A3.06,3.06,0,0,1,1849.66,1123.34Zm-1.17,2.19a.64.64,0,0,0,.2-.15.79.79,0,0,0,.14-.23,1.31,1.31,0,0,0,.08-.3,2.33,2.33,0,0,0,0-.38,2.36,2.36,0,0,0,0-.35,2,2,0,0,0-.08-.32,1.91,1.91,0,0,0-.13-.3,2,2,0,0,0-.18-.27,1.91,1.91,0,0,0-.23-.24,2,2,0,0,0-.27-.2l-.31-.16-.35-.13-.54-.16-.25,3,.63.18.41.1.36,0a1.48,1.48,0,0,0,.31,0,1,1,0,0,0,.25-.08m-1.42-6.72-.18,2.3.15.05.25.07.28.06h.25l.21,0a.66.66,0,0,0,.18-.09.59.59,0,0,0,.14-.14.76.76,0,0,0,.1-.19,1.18,1.18,0,0,0,.06-.24,1.94,1.94,0,0,0,0-.29,2,2,0,0,0,0-.25,1.7,1.7,0,0,0,0-.23,1.51,1.51,0,0,0-.08-.21,1.44,1.44,0,0,0-.11-.2l-.14-.17-.16-.14-.19-.11-.21-.08-.27-.08-.07,0h-.18" transform="translate(-1422 -748)"/>
            <polygon class="4da911d4-0c70-4caa-9a32-6adc0ad8fede" points="414.13 366.4 413.52 374.15 416.21 374.92 416.1 376.14 412.39 375.07 413.08 366.1 414.13 366.4"/>
          </g>
        </g>
      </g>
      <g id="0157cde9-0dee-455a-9cad-1237ce316ab0" data-name="LDB2">
        <image class="75ad6947-3a4d-439c-b66f-77eb2dbaf73f" width="309" height="163" transform="translate(371.29 211.29)" xlink:href="Eribuilding3.png"/>
        <g>
          <g>
            <polygon class="5b0fbd8a-6311-484c-969a-36f2fa9983aa" points="562.84 241.73 404.06 303.33 479 320.8 612.29 249.46 562.84 241.73"/>
            <polygon class="73ebb0c0-11b4-47bf-8456-431424f43cf0" points="479 320.8 479 337.56 404.06 318.79 404.06 303.33 479 320.8"/>
            <polygon class="766ac7b9-ae33-4839-b7fe-cb39d8330c9c" points="479 337.56 612.29 255.34 612.29 249.46 479 324.03 479 337.56"/>
          </g>
          <polygon class="73ebb0c0-11b4-47bf-8456-431424f43cf0" points="523.91 296.76 616.79 318.79 616.79 331.27 523.91 309.87 523.91 296.76"/>
          <polygon class="766ac7b9-ae33-4839-b7fe-cb39d8330c9c" points="616.79 331.27 646.94 302.27 646.94 291.38 616.79 318.79 616.79 331.27"/>
          <polygon class="5b0fbd8a-6311-484c-969a-36f2fa9983aa" points="646.94 291.38 563.75 275.44 523.91 296.76 616.79 318.79 646.94 291.38"/>
          <g>
            <polygon class="4da911d4-0c70-4caa-9a32-6adc0ad8fede" points="415.76 308.51 415.15 316.26 417.83 317.03 417.73 318.25 414.02 317.18 414.71 308.21 415.76 308.51"/>
            <g class="1e8464ac-ea4a-491d-a699-6c436aa9e3d9">
              <path class="4da911d4-0c70-4caa-9a32-6adc0ad8fede" d="M1851.28,1065.45a3.36,3.36,0,0,1,.15.36,3.42,3.42,0,0,1,.11.37,3.67,3.67,0,0,1,.07.39,4.13,4.13,0,0,1,0,.42,3.73,3.73,0,0,1,0,.6,2.36,2.36,0,0,1-.12.5,1.65,1.65,0,0,1-.21.4,1.41,1.41,0,0,1-.3.3,1.45,1.45,0,0,1-.39.2,1.82,1.82,0,0,1-.46.09,2.7,2.7,0,0,1-.53,0,4.29,4.29,0,0,1-.6-.13l-2-.56.71-9,1.13.32a4.6,4.6,0,0,1,.54.19,3.57,3.57,0,0,1,.47.24,3,3,0,0,1,.4.29,2.67,2.67,0,0,1,.33.34,2.54,2.54,0,0,1,.26.39,2.7,2.7,0,0,1,.19.44,3.13,3.13,0,0,1,.12.49,3.86,3.86,0,0,1,0,.54q0,.17,0,.32a2.69,2.69,0,0,1,0,.29,2.19,2.19,0,0,1-.06.26,1.86,1.86,0,0,1-.09.23,1.32,1.32,0,0,1-.12.2,1.24,1.24,0,0,1-.16.17l-.19.15-.23.12.3.24a3,3,0,0,1,.26.27,2.85,2.85,0,0,1,.22.29A2.91,2.91,0,0,1,1851.28,1065.45Zm-1.17,2.19a.65.65,0,0,0,.2-.15.8.8,0,0,0,.14-.23,1.29,1.29,0,0,0,.08-.3,2.25,2.25,0,0,0,0-.38,2.36,2.36,0,0,0,0-.35,2,2,0,0,0-.08-.32,1.91,1.91,0,0,0-.13-.3,2,2,0,0,0-.18-.27,1.89,1.89,0,0,0-.23-.24,2,2,0,0,0-.27-.2l-.31-.16-.35-.12-.54-.16-.25,3,.62.18.41.1.36,0a1.46,1.46,0,0,0,.3,0,1,1,0,0,0,.25-.08m-1.42-6.72-.18,2.3.15.05.25.07.28.06h.25l.21,0a.66.66,0,0,0,.18-.09.59.59,0,0,0,.14-.14.76.76,0,0,0,.1-.19,1.18,1.18,0,0,0,.06-.24,1.94,1.94,0,0,0,0-.29,1.92,1.92,0,0,0,0-.25,1.68,1.68,0,0,0-.05-.23,1.55,1.55,0,0,0-.08-.21,1.51,1.51,0,0,0-.11-.2l-.14-.17-.16-.14-.19-.11-.21-.08-.27-.08-.06,0h-.18" transform="translate(-1422 -748)"/>
              <polygon class="4da911d4-0c70-4caa-9a32-6adc0ad8fede" points="437 314.57 436.9 315.84 434.66 315.2 434.47 317.72 436.46 318.29 436.36 319.57 434.36 319 434.04 322.95 432.98 322.64 433.72 313.63 437 314.57"/>
              <polygon class="4da911d4-0c70-4caa-9a32-6adc0ad8fede" points="439.12 315.18 438.47 322.97 441.19 323.76 441.08 324.98 437.33 323.9 438.05 314.87 439.12 315.18"/>
              <path class="4da911d4-0c70-4caa-9a32-6adc0ad8fede" d="M1869.29,1067.34q.09.25.15.52t.11.54q0,.27.07.56t0,.57q0,.39,0,.75t-.07.7q0,.34-.12.65a5.64,5.64,0,0,1-.18.59,4.62,4.62,0,0,1-.23.53,3.46,3.46,0,0,1-.27.45,2.7,2.7,0,0,1-.31.36,2.28,2.28,0,0,1-.36.28,2,2,0,0,1-.39.2,1.81,1.81,0,0,1-.41.1,2,2,0,0,1-.43,0,2.42,2.42,0,0,1-.45-.09,2.61,2.61,0,0,1-.37-.14,2.77,2.77,0,0,1-.36-.2,3.12,3.12,0,0,1-.34-.26,3.68,3.68,0,0,1-.32-.32,4.35,4.35,0,0,1-.3-.37,4.72,4.72,0,0,1-.26-.41q-.12-.22-.23-.46t-.2-.5q-.09-.26-.16-.53t-.12-.54q0-.28-.07-.56t0-.57q0-.27,0-.52t0-.51q0-.25.07-.49t.1-.47q.06-.23.13-.45t.16-.41q.09-.2.18-.37a3.86,3.86,0,0,1,.21-.34,2.93,2.93,0,0,1,.23-.3,2.41,2.41,0,0,1,.25-.25,2.1,2.1,0,0,1,.28-.19,2,2,0,0,1,.3-.14l.31-.09.32,0,.34,0,.35.07a2.6,2.6,0,0,1,.37.14,2.73,2.73,0,0,1,.35.2,3,3,0,0,1,.34.26,3.54,3.54,0,0,1,.31.31,4.16,4.16,0,0,1,.29.36,4.48,4.48,0,0,1,.26.41,5,5,0,0,1,.22.45Q1869.2,1067.08,1869.29,1067.34Zm-1,3.83q.07-.22.12-.46t.09-.49q0-.25,0-.52t0-.54q0-.19,0-.38t0-.36q0-.18-.07-.35t-.09-.33q-.05-.16-.11-.31t-.13-.29a2.72,2.72,0,0,0-.15-.26l-.17-.23-.19-.19-.2-.16-.22-.12-.23-.09a1.32,1.32,0,0,0-.29-.05,1.12,1.12,0,0,0-.28,0,1.14,1.14,0,0,0-.27.09,1.37,1.37,0,0,0-.25.16,1.68,1.68,0,0,0-.23.22,2.21,2.21,0,0,0-.21.29,3,3,0,0,0-.19.35,4.24,4.24,0,0,0-.16.42q-.08.22-.13.46t-.09.48q0,.25-.05.5t0,.52q0,.2,0,.39t0,.38q0,.18.07.36t.09.34q.05.16.11.32t.13.29a2.81,2.81,0,0,0,.16.26l.17.23.19.2.2.16.22.12.23.09a1.28,1.28,0,0,0,.29,0,1.09,1.09,0,0,0,.28,0,1.12,1.12,0,0,0,.27-.09,1.39,1.39,0,0,0,.26-.17,1.73,1.73,0,0,0,.24-.23,2.17,2.17,0,0,0,.21-.29,2.92,2.92,0,0,0,.18-.35,4.05,4.05,0,0,0,.15-.41" transform="translate(-1422 -748)"/>
              <path class="4da911d4-0c70-4caa-9a32-6adc0ad8fede" d="M1876.1,1069.29q.09.25.15.52t.11.54q0,.27.07.56t0,.58q0,.39,0,.76t-.07.7q0,.34-.12.65a5.64,5.64,0,0,1-.18.59,4.62,4.62,0,0,1-.23.53,3.47,3.47,0,0,1-.27.45,2.71,2.71,0,0,1-.31.37,2.29,2.29,0,0,1-.36.28,2,2,0,0,1-.39.2,1.82,1.82,0,0,1-.41.1,2,2,0,0,1-.43,0,2.44,2.44,0,0,1-.45-.09,2.63,2.63,0,0,1-.38-.14,2.79,2.79,0,0,1-.36-.2,3.13,3.13,0,0,1-.34-.26,3.69,3.69,0,0,1-.32-.32,4.36,4.36,0,0,1-.3-.37,4.73,4.73,0,0,1-.26-.41q-.12-.22-.23-.46t-.2-.5q-.09-.26-.16-.53t-.12-.54q0-.28-.07-.56t0-.58q0-.27,0-.52t0-.51q0-.25.07-.49t.1-.47q.06-.23.13-.45t.16-.41q.09-.2.19-.37a3.86,3.86,0,0,1,.21-.34,2.94,2.94,0,0,1,.24-.3,2.42,2.42,0,0,1,.26-.25,2.11,2.11,0,0,1,.28-.19,2,2,0,0,1,.3-.14,1.83,1.83,0,0,1,.31-.09l.33,0,.34,0,.35.07a2.66,2.66,0,0,1,.38.14,2.75,2.75,0,0,1,.36.2,3,3,0,0,1,.34.26,3.55,3.55,0,0,1,.32.31,4.17,4.17,0,0,1,.29.37,4.48,4.48,0,0,1,.26.41,5,5,0,0,1,.22.45Q1876,1069,1876.1,1069.29Zm-1,3.83q.07-.22.13-.46t.09-.49q0-.25,0-.52t0-.54q0-.19,0-.38t0-.36q0-.18-.07-.35t-.09-.33q0-.16-.11-.31a3.1,3.1,0,0,0-.13-.29,2.66,2.66,0,0,0-.15-.26l-.17-.23-.19-.2-.2-.16-.22-.12-.23-.09a1.33,1.33,0,0,0-.29-.05,1.13,1.13,0,0,0-.28,0,1.14,1.14,0,0,0-.27.09,1.37,1.37,0,0,0-.25.16,1.6,1.6,0,0,0-.24.22,2.14,2.14,0,0,0-.21.29,3,3,0,0,0-.19.35,4.4,4.4,0,0,0-.16.42q-.08.22-.13.46t-.09.48q0,.25-.05.5t0,.52q0,.2,0,.39t0,.38q0,.18.07.36t.1.34q.05.16.11.32t.14.29a2.81,2.81,0,0,0,.16.26l.18.23.19.2.21.16.22.12.23.09a1.29,1.29,0,0,0,.29,0,1.09,1.09,0,0,0,.28,0,1.13,1.13,0,0,0,.27-.09,1.39,1.39,0,0,0,.26-.17,1.83,1.83,0,0,0,.24-.23,2.26,2.26,0,0,0,.21-.29,2.94,2.94,0,0,0,.18-.35,3.92,3.92,0,0,0,.16-.41" transform="translate(-1422 -748)"/>
              <path class="4da911d4-0c70-4caa-9a32-6adc0ad8fede" d="M1881.13,1075l1.17,3.57-1.18-.34-.71-2.26-.14-.43-.12-.36-.1-.28-.08-.21-.07-.16-.07-.14-.06-.12-.06-.1-.07-.1-.07-.08-.07-.07-.07-.05-.08-.05-.09,0-.1,0-.11,0-.32-.09-.31,3.86-1.09-.32.75-9.07,1.63.47.29.09.26.11.24.14.22.16.2.17.18.19.16.2.14.21.12.22.1.23.09.24q0,.12.07.25t.05.25,0,.25,0,.25,0,.26a3.36,3.36,0,0,1,0,.41,2.6,2.6,0,0,1-.07.37,2.09,2.09,0,0,1-.11.33,1.8,1.8,0,0,1-.16.29,1.44,1.44,0,0,1-.2.25,1.17,1.17,0,0,1-.24.18,1.14,1.14,0,0,1-.27.11,1.34,1.34,0,0,1-.31,0v.05l.1.11.09.13.08.14.08.15.07.16.06.17.06.18Zm-1-2.44.15-.06.13-.09.11-.11.09-.13a1.27,1.27,0,0,0,.07-.16,1.45,1.45,0,0,0,0-.18,1.71,1.71,0,0,0,0-.2,2.06,2.06,0,0,0,0-.22,2.29,2.29,0,0,0,0-.29,1.87,1.87,0,0,0-.06-.27,1.64,1.64,0,0,0-.09-.24,1.57,1.57,0,0,0-.13-.22,1.4,1.4,0,0,0-.16-.19l-.19-.16-.23-.13-.26-.09-.57-.16-.22,2.73.55.16.22,0,.2,0h.18l.17,0" transform="translate(-1422 -748)"/>
              <path class="4da911d4-0c70-4caa-9a32-6adc0ad8fede" d="M1887.64,1070.63l.24.09.22.12.21.15.2.19.18.21.16.24a2.77,2.77,0,0,1,.14.26,3,3,0,0,1,.12.29q.05.15.1.31t.07.31q0,.16,0,.32t0,.33q0,.15,0,.31t0,.31q0,.16-.06.31t-.08.31q0,.15-.1.32l-.13.34-.16.37-.19.39-.24.44-.31.54-.38.63-.45.72,2.07.6-.12,1.44-3.81-1.1,0-.12,0-.13.53-.85.47-.77.4-.68.34-.6.29-.53.24-.48.2-.42.15-.37q.06-.17.11-.33t.08-.3,0-.28a2,2,0,0,0,0-.25,1.9,1.9,0,0,0,0-.23,1.61,1.61,0,0,0,0-.22,1.46,1.46,0,0,0-.07-.2,1.41,1.41,0,0,0-.1-.19l-.12-.16-.14-.13-.16-.1-.17-.07-.15,0h-.15l-.16,0-.16,0-.17.06-.18.09-.19.12-.21.14.13-1.54.18-.11.18-.09.17-.07.17,0,.17,0h.18l.19,0Z" transform="translate(-1422 -748)"/>
            </g>
            <path class="4da911d4-0c70-4caa-9a32-6adc0ad8fede" d="M1845.88,1061.6q.06.22.1.45t.07.46q0,.23,0,.47t0,.47q0,.34,0,.66t-.06.61a5.49,5.49,0,0,1-.11.56,4.35,4.35,0,0,1-.16.51,3.38,3.38,0,0,1-.2.44,2.61,2.61,0,0,1-.24.37,2.14,2.14,0,0,1-.29.3,1.94,1.94,0,0,1-.33.23,1.83,1.83,0,0,1-.37.15,1.9,1.9,0,0,1-.4.07,2.25,2.25,0,0,1-.42,0,2.93,2.93,0,0,1-.45-.09l-2.56-.74.69-9,1.35.38.43.14.4.18.37.22.34.25.31.28.29.31q.14.16.26.33t.24.36q.11.18.21.38t.18.4q.08.2.15.42T1845.88,1061.6Zm-1.43,3.87a1.72,1.72,0,0,0,.26-.41,2.71,2.71,0,0,0,.18-.53,4.51,4.51,0,0,0,.1-.65,7.38,7.38,0,0,0,0-.77q0-.2,0-.39t0-.38q0-.18-.07-.36t-.09-.34q-.05-.16-.11-.32l-.13-.3-.14-.28-.16-.26-.17-.24-.18-.22-.2-.2-.21-.17-.21-.15-.22-.12-.22-.1-.22-.07-.45-.13-.49,6.46,1,.28a2.9,2.9,0,0,0,.56.11,1.78,1.78,0,0,0,.48,0,1.27,1.27,0,0,0,.74-.43" transform="translate(-1422 -748)"/>
          </g>
        </g>
      </g>
      <g id="cc36d4dc-4bc7-4e2d-bfbf-1c8dce4b9d87" data-name="LDB3">
        <g>
          <polygon class="d292004b-ceec-48b7-b474-784a937d37f8" points="560.95 201.75 402.06 244.35 477 259.93 610.29 209.49 560.95 201.75"/>
          <polygon class="6fb2333c-514b-4c03-b19d-52bb3587576f" points="477 259.93 477 277.36 402.06 259.24 402.06 244.35 477 259.93"/>
          <polygon class="a4b86d82-56f6-4a77-9986-0b540c5619dd" points="477 277.36 610.29 218.27 610.29 209.49 477 259.93 477 277.36"/>
        </g>
        <polygon class="6fb2333c-514b-4c03-b19d-52bb3587576f" points="521.91 242.94 614.79 260.37 614.79 276.44 521.91 257.47 521.91 242.94"/>
        <polygon class="a4b86d82-56f6-4a77-9986-0b540c5619dd" points="614.79 276.44 646.18 254.29 646.18 242.73 614.79 260.37 614.79 276.44"/>
        <polygon class="d292004b-ceec-48b7-b474-784a937d37f8" points="646.18 242.73 561.15 228.09 521.91 242.94 614.79 260.37 646.18 242.73"/>
        <g>
          <path class="4da911d4-0c70-4caa-9a32-6adc0ad8fede" d="M1844.05,1003.87q.06.22.11.45t.08.46q0,.23.06.47t0,.49q0,.35,0,.67t-.05.63q0,.3-.1.58a5.14,5.14,0,0,1-.15.53,3.91,3.91,0,0,1-.2.47,3,3,0,0,1-.25.4,2.5,2.5,0,0,1-.29.33,2.22,2.22,0,0,1-.33.26,2,2,0,0,1-.77.29,2.27,2.27,0,0,1-.43,0,2.81,2.81,0,0,1-.46-.05l-2.62-.51.59-9.26,1.38.27.44.11.41.15.38.18.35.22.33.26.3.29q.14.15.27.32t.24.35q.11.18.21.37t.19.39q.09.2.16.41T1844.05,1003.87Zm-1.4,4.1a2,2,0,0,0,.26-.44,3,3,0,0,0,.17-.56,4.87,4.87,0,0,0,.09-.68,7.68,7.68,0,0,0,0-.79q0-.21,0-.4t0-.38q0-.19-.07-.36t-.1-.34l-.12-.32-.14-.3-.15-.27-.17-.25-.18-.23-.19-.2-.2-.18-.21-.16-.22-.13-.22-.11-.22-.08-.23-.06-.45-.09-.41,6.66,1,.19a2.85,2.85,0,0,0,.57.06,1.86,1.86,0,0,0,.5-.07,1.44,1.44,0,0,0,.42-.19,1.48,1.48,0,0,0,.34-.32" transform="translate(-1422 -748)"/>
          <g class="1e8464ac-ea4a-491d-a699-6c436aa9e3d9">
            <path class="4da911d4-0c70-4caa-9a32-6adc0ad8fede" d="M1849.6,1007.3a3.26,3.26,0,0,1,.15.35,3.38,3.38,0,0,1,.11.37,3.69,3.69,0,0,1,.07.4,4.21,4.21,0,0,1,0,.42,3.93,3.93,0,0,1,0,.61,2.59,2.59,0,0,1-.12.52,1.85,1.85,0,0,1-.21.43,1.58,1.58,0,0,1-.31.34,1.63,1.63,0,0,1-.39.24,1.92,1.92,0,0,1-.47.13,2.72,2.72,0,0,1-.54,0,4.2,4.2,0,0,1-.62-.08l-2-.39.61-9.28,1.16.22a4.4,4.4,0,0,1,.55.14,3.37,3.37,0,0,1,.48.2,2.7,2.7,0,0,1,.41.26,2.35,2.35,0,0,1,.34.31,2.41,2.41,0,0,1,.27.38,2.59,2.59,0,0,1,.2.43,3.07,3.07,0,0,1,.13.49,3.89,3.89,0,0,1,.05.55q0,.17,0,.33a2.84,2.84,0,0,1,0,.3,2.23,2.23,0,0,1-.06.27,1.84,1.84,0,0,1-.09.24,1.38,1.38,0,0,1-.28.41l-.19.17-.23.14.3.21a2.73,2.73,0,0,1,.27.25,2.69,2.69,0,0,1,.23.28A2.82,2.82,0,0,1,1849.6,1007.3Zm-1.16,2.36a.73.73,0,0,0,.2-.17.9.9,0,0,0,.14-.25,1.43,1.43,0,0,0,.08-.32,2.43,2.43,0,0,0,0-.39,2.38,2.38,0,0,0,0-.36,2,2,0,0,0-.09-.32,1.8,1.8,0,0,0-.56-.78,1.86,1.86,0,0,0-.28-.18,2.13,2.13,0,0,0-.32-.14l-.36-.1-.56-.11-.22,3.09.64.13.42.06h.37a1.54,1.54,0,0,0,.31-.05,1.05,1.05,0,0,0,.26-.11m-1.53-6.75-.16,2.36.15,0,.26.05.29,0h.25l.22-.06a.74.74,0,0,0,.18-.11.68.68,0,0,0,.14-.16.86.86,0,0,0,.1-.21,1.28,1.28,0,0,0,.05-.25,2,2,0,0,0,0-.3,2,2,0,0,0,0-.25,1.66,1.66,0,0,0-.05-.23,1.43,1.43,0,0,0-.08-.21,1.33,1.33,0,0,0-.11-.19l-.14-.16-.17-.13-.19-.09-.21-.06-.27-.05h-.25" transform="translate(-1422 -748)"/>
            <polygon class="4da911d4-0c70-4caa-9a32-6adc0ad8fede" points="435.41 255.62 435.33 256.93 433.04 256.49 432.88 259.09 434.91 259.48 434.83 260.79 432.79 260.39 432.51 264.48 431.43 264.27 432.06 254.97 435.41 255.62"/>
            <polygon class="4da911d4-0c70-4caa-9a32-6adc0ad8fede" points="437.57 256.04 437.02 264.08 439.8 264.63 439.71 265.89 435.87 265.14 436.48 255.82 437.57 256.04"/>
            <path class="4da911d4-0c70-4caa-9a32-6adc0ad8fede" d="M1867.94,1007.52q.09.25.16.52t.12.54q0,.28.08.56t0,.59q0,.4,0,.77t-.06.72q0,.35-.12.67a6.19,6.19,0,0,1-.17.62,5.18,5.18,0,0,1-.22.56,4,4,0,0,1-.27.48,3.11,3.11,0,0,1-.31.4,2.61,2.61,0,0,1-.36.32,2.22,2.22,0,0,1-.39.24,2,2,0,0,1-.41.14,2,2,0,0,1-.44,0,2.37,2.37,0,0,1-.46,0,2.46,2.46,0,0,1-.38-.11,2.55,2.55,0,0,1-.37-.17,2.84,2.84,0,0,1-.35-.23,3.33,3.33,0,0,1-.33-.3,3.86,3.86,0,0,1-.31-.35,4.32,4.32,0,0,1-.27-.4,4.94,4.94,0,0,1-.24-.45q-.11-.23-.2-.49t-.17-.53q-.07-.27-.12-.55t-.08-.56q0-.29,0-.58t0-.54q0-.27,0-.52t.06-.51q0-.25.1-.49t.13-.47q.07-.23.15-.43t.18-.4q.1-.19.21-.36a3.28,3.28,0,0,1,.24-.33,2.82,2.82,0,0,1,.26-.28,2.54,2.54,0,0,1,.28-.23l.3-.18.32-.12.33-.07h.34l.35,0a2.45,2.45,0,0,1,.38.11,2.53,2.53,0,0,1,.36.17,2.81,2.81,0,0,1,.35.23,3.31,3.31,0,0,1,.33.29,3.82,3.82,0,0,1,.3.34,4.18,4.18,0,0,1,.27.39,4.7,4.7,0,0,1,.23.44Q1867.85,1007.27,1867.94,1007.52Zm-1,4q.07-.23.12-.48t.08-.51q0-.26,0-.53t0-.56q0-.2,0-.38t0-.37q0-.18-.07-.35t-.09-.33q-.05-.16-.12-.31a3,3,0,0,0-.14-.28,2.51,2.51,0,0,0-.16-.25l-.18-.22-.19-.18-.21-.14-.22-.1-.23-.07a1.33,1.33,0,0,0-.3,0,1.15,1.15,0,0,0-.28,0,1.22,1.22,0,0,0-.27.12,1.57,1.57,0,0,0-.26.19,1.93,1.93,0,0,0-.24.25,2.54,2.54,0,0,0-.21.31,3.45,3.45,0,0,0-.18.38q-.09.2-.16.44t-.12.48q-.05.25-.08.5t0,.52q0,.26,0,.54t0,.4q0,.19,0,.38t.07.36q0,.17.1.34t.12.31.14.28a2.7,2.7,0,0,0,.16.25l.18.22.2.18.21.14.22.11.24.07a1.25,1.25,0,0,0,.29,0,1.13,1.13,0,0,0,.28,0,1.23,1.23,0,0,0,.27-.12,1.58,1.58,0,0,0,.26-.19,2.05,2.05,0,0,0,.24-.26,2.6,2.6,0,0,0,.21-.32,3.46,3.46,0,0,0,.18-.38q.08-.2.15-.44" transform="translate(-1422 -748)"/>
            <path class="4da911d4-0c70-4caa-9a32-6adc0ad8fede" d="M1874.9,1008.87q.09.25.16.52t.12.54q0,.28.08.56t0,.59q0,.4,0,.78t-.06.73q0,.35-.12.68a6.2,6.2,0,0,1-.17.63,5.18,5.18,0,0,1-.23.56,4,4,0,0,1-.27.48,3.12,3.12,0,0,1-.32.4,2.62,2.62,0,0,1-.36.32,2.23,2.23,0,0,1-.39.24,2,2,0,0,1-.42.14,2,2,0,0,1-.44,0,2.38,2.38,0,0,1-.46,0,2.48,2.48,0,0,1-.38-.11,2.57,2.57,0,0,1-.37-.17,2.85,2.85,0,0,1-.35-.23,3.34,3.34,0,0,1-.33-.3,3.89,3.89,0,0,1-.31-.35,4.4,4.4,0,0,1-.27-.4,5.08,5.08,0,0,1-.24-.45q-.11-.23-.21-.49t-.17-.53q-.07-.27-.12-.55t-.08-.57q0-.29,0-.59t0-.54q0-.27,0-.52t.07-.51q0-.25.1-.49t.13-.47q.07-.23.16-.43t.18-.4q.1-.19.21-.37a3.38,3.38,0,0,1,.24-.33,2.8,2.8,0,0,1,.26-.28,2.46,2.46,0,0,1,.28-.23,2.34,2.34,0,0,1,.3-.18l.32-.12.33-.07h.34l.36,0a2.47,2.47,0,0,1,.38.11,2.55,2.55,0,0,1,.37.17,2.83,2.83,0,0,1,.35.23,3.32,3.32,0,0,1,.33.29,3.83,3.83,0,0,1,.3.35,4.18,4.18,0,0,1,.27.39,4.7,4.7,0,0,1,.23.44Q1874.81,1008.61,1874.9,1008.87Zm-1,4q.07-.23.12-.48t.08-.51q0-.26,0-.53t0-.56q0-.2,0-.38t0-.37q0-.18-.07-.35t-.09-.33q-.05-.16-.12-.31a3,3,0,0,0-.14-.28,2.51,2.51,0,0,0-.16-.25l-.18-.22-.2-.19-.21-.14-.22-.1-.23-.07a1.35,1.35,0,0,0-.3,0,1.16,1.16,0,0,0-.29,0,1.21,1.21,0,0,0-.27.12,1.49,1.49,0,0,0-.26.19,1.94,1.94,0,0,0-.24.25,2.55,2.55,0,0,0-.21.31,3.46,3.46,0,0,0-.19.38q-.09.21-.16.44t-.13.48q-.05.25-.09.5t0,.52q0,.27,0,.54t0,.4q0,.19,0,.38t.07.36q0,.18.1.34t.12.31a3.08,3.08,0,0,0,.14.28,2.7,2.7,0,0,0,.16.25l.18.22.2.18.21.14.22.11.24.07a1.29,1.29,0,0,0,.3,0,1.15,1.15,0,0,0,.29,0,1.24,1.24,0,0,0,.27-.12,1.58,1.58,0,0,0,.26-.19,2,2,0,0,0,.24-.26,2.56,2.56,0,0,0,.21-.32,3.36,3.36,0,0,0,.18-.38,4.53,4.53,0,0,0,.15-.44" transform="translate(-1422 -748)"/>
            <path class="4da911d4-0c70-4caa-9a32-6adc0ad8fede" d="M1880.09,1014.18l1.23,3.55-1.2-.24-.75-2.25-.15-.43-.13-.35-.11-.28-.08-.2-.07-.16-.07-.14-.07-.12-.06-.1-.07-.09-.07-.08-.07-.07-.08-.05-.08,0-.09,0-.11,0-.12,0-.33-.06-.27,4-1.11-.22.64-9.36,1.66.32.29.07.27.09.25.12.22.14.21.16.19.17.17.19.15.2.13.21.11.23q.05.12.09.24t.07.25.06.25,0,.25,0,.26,0,.26a3.52,3.52,0,0,1,0,.42,2.84,2.84,0,0,1-.06.38,2.38,2.38,0,0,1-.11.35,2.11,2.11,0,0,1-.16.32,1.62,1.62,0,0,1-.2.27,1.38,1.38,0,0,1-.24.2,1.34,1.34,0,0,1-.28.14,1.51,1.51,0,0,1-.31.08v.05l.1.11.09.12.09.13.08.15.07.16.07.17.07.18Zm-1-2.4.15-.08.13-.1.11-.13.09-.15a1.1,1.1,0,0,0,.07-.16,1.38,1.38,0,0,0,0-.18,1.77,1.77,0,0,0,0-.2q0-.11,0-.22a2.43,2.43,0,0,0,0-.3,1.85,1.85,0,0,0-.06-.27,1.53,1.53,0,0,0-.1-.24,1.4,1.4,0,0,0-.13-.21,1.27,1.27,0,0,0-.17-.18l-.2-.14-.23-.11-.26-.07-.59-.11-.19,2.81.56.11.22,0h.2l.18,0,.17-.05" transform="translate(-1422 -748)"/>
            <path class="4da911d4-0c70-4caa-9a32-6adc0ad8fede" d="M1886.74,1009.16l.27.07.25.1.24.14.22.18.21.21.18.24a2.64,2.64,0,0,1,.16.26,2.89,2.89,0,0,1,.13.29q.06.15.11.31t.08.33q0,.17.05.35t0,.36a4,4,0,0,1,0,.4,2.92,2.92,0,0,1,0,.36,2.25,2.25,0,0,1-.09.32,1.86,1.86,0,0,1-.13.28,1.59,1.59,0,0,1-.16.24,1.42,1.42,0,0,1-.2.2,1.41,1.41,0,0,1-.24.16,1.54,1.54,0,0,1-.27.11,2.29,2.29,0,0,1,.38.42,2.58,2.58,0,0,1,.28.52,3.29,3.29,0,0,1,.17.61,4.5,4.5,0,0,1,.07.71q0,.13,0,.26t0,.26,0,.25-.05.25-.08.24l-.09.22-.11.21-.13.19-.15.17-.17.15-.19.12-.21.1-.23.07-.25,0h-.27l-.29,0-.22-.05-.21-.07-.2-.08-.2-.1-.2-.12-.2-.13-.2-.15-.2-.16.1-1.41.19.16.18.15.18.13.17.12.17.1.18.08.19.06.19,0,.17,0h.16l.15,0,.14-.06.13-.08.12-.11.1-.13.08-.15a1.14,1.14,0,0,0,.07-.16,1.41,1.41,0,0,0,0-.18,1.83,1.83,0,0,0,0-.2q0-.1,0-.22a2.34,2.34,0,0,0,0-.27,2,2,0,0,0-.05-.25,1.81,1.81,0,0,0-.08-.23,1.66,1.66,0,0,0-.11-.21l-.14-.19-.16-.16-.17-.13-.19-.1-.09,0-.08,0-.07,0h-.06l-.18,0,.09-1.42.26.07.2,0h.18l.17,0,.15-.05.14-.07.12-.09.11-.11.09-.13.07-.15a1.24,1.24,0,0,0,.05-.16,1.35,1.35,0,0,0,0-.18,1.57,1.57,0,0,0,0-.19,2.05,2.05,0,0,0,0-.26,1.78,1.78,0,0,0-.05-.24,1.6,1.6,0,0,0-.08-.22,1.52,1.52,0,0,0-.11-.2,1.24,1.24,0,0,0-.14-.18l-.16-.13-.18-.1-.2-.06-.16,0h-.33l-.17,0-.17,0-.18.07-.19.09-.2.11.11-1.56.35-.13.36-.07.36,0Z" transform="translate(-1422 -748)"/>
          </g>
          <polygon class="4da911d4-0c70-4caa-9a32-6adc0ad8fede" points="413.73 251.44 413.2 259.43 415.94 259.96 415.85 261.22 412.07 260.48 412.65 251.23 413.73 251.44"/>
        </g>
      </g>
      <g id="c7cc4421-b563-47a9-8659-c40fa36fc9a9" data-name="bron">
        <polygon class="d292004b-ceec-48b7-b474-784a937d37f8" points="310.59 199.64 458.3 229.27 480.88 223.22 330.8 197.02 310.59 199.64"/>
        <polygon id="a6cc4fa3-75c7-473f-84be-906d1979d4d2" data-name="Bron" class="6fb2333c-514b-4c03-b19d-52bb3587576f" points="310.59 199.64 310.59 214.15 428.38 237.67 458.91 229.08 310.59 199.64"/>
      </g>
    </g>
  </g>
</svg>
